<?xml version="1.0" standalone="no"?>
<!DOCTYPE svg PUBLIC "-//W3C//DTD SVG 1.1//EN" "http://www.w3.org/Graphics/SVG/1.1/DTD/svg11.dtd" >
<svg xmlns="http://www.w3.org/2000/svg" xmlns:xlink="http://www.w3.org/1999/xlink" version="1.1">
<metadata></metadata>
<defs>
<font id="boldenvanregular" horiz-adv-x="557" >
<font-face units-per-em="2048" ascent="1638" descent="-410" />
<missing-glyph horiz-adv-x="614" />
<glyph unicode="&#xfb01;" horiz-adv-x="1310" d="M0 885q0 35 23.5 60.5t58.5 25.5h4q12 0 12 14q0 59 3 117.5t9.5 109t16.5 90t25 64.5q61 104 160.5 158.5t205 79t197.5 27.5t139 3q33 2 56.5 -18.5t29.5 -50.5l39 -226q4 -35 -13.5 -61.5t-50.5 -34.5q-10 -4 -40.5 -5t-72.5 -5t-88 -12.5t-89 -25.5t-76 -45t-47 -71 q-8 -23 -8 -84q0 -2 4 -10q8 -4 10 -4l55 2q33 0 62 -25q25 -25 24 -61l-2 -180q-2 -35 -25.5 -58.5t-58.5 -25.5h-26q-6 0 -11 -4q-4 -8 -4 -13q8 -74 17.5 -147.5t18.5 -141t18.5 -127t15.5 -102.5q6 -39 -21 -67q-25 -33 -63 -29l-277 4q-33 0 -55 21.5t-26 54.5 q-4 39 -9.5 96.5t-10.5 127t-10 147t-9 159.5q0 16 -15 13h-8q-35 0 -59 24q-23 23 -27 60zM754 94l14 938q0 35 24.5 59.5t59.5 24.5h266q35 0 59.5 -23.5t24.5 -58.5l21 -944q0 -35 -25 -59q-29 -29 -61 -25l-299 2q-37 0 -60 27q-25 25 -24 59z" />
<glyph unicode="&#xfb02;" horiz-adv-x="1277" d="M0 885q0 35 23.5 60.5t58.5 25.5h4q12 0 12 14q0 59 3 117.5t9.5 109t16.5 90t25 64.5q55 96 145 150.5t186.5 80t186.5 31.5t147 6h4l228 13q39 0 61 -23q27 -23 29 -59l59 -1477q2 -33 -22 -61q-29 -25 -62 -25l-262 2q-35 2 -59.5 25.5t-24.5 58.5l-20 1139 q-37 -6 -76 -16.5t-73 -28t-59.5 -43t-37.5 -60.5q-8 -23 -8 -84q0 -2 4 -10q8 -4 10 -4l55 2q33 0 62 -25q25 -25 24 -61l-2 -180q-2 -35 -25.5 -58.5t-58.5 -25.5h-26q-6 0 -11 -4q-4 -8 -4 -13q8 -74 17.5 -147.5t18.5 -141t18.5 -127t15.5 -102.5q6 -39 -21 -67 q-25 -33 -63 -29l-277 4q-33 0 -55 21.5t-26 54.5q-4 39 -9.5 96.5t-10.5 127t-10 147t-9 159.5q0 16 -15 13h-8q-35 0 -59 24q-23 23 -27 60z" />
<glyph horiz-adv-x="0" />
<glyph horiz-adv-x="682" />
<glyph unicode=" "  horiz-adv-x="614" />
<glyph unicode="&#x09;" horiz-adv-x="614" />
<glyph unicode="&#xa0;" horiz-adv-x="614" />
<glyph unicode="!" d="M0 215q0 47 19.5 88t52 72t77 49t95.5 18q49 0 93 -18t76.5 -49t52 -72t19.5 -88t-19.5 -88t-52 -71.5t-76.5 -48t-93 -17.5q-51 0 -95.5 17.5t-77 48t-52 71.5t-19.5 88zM10 1475q0 35 25 63q27 27 61 27h301q37 0 64 -27q27 -29 22 -63l-47 -895q-2 -35 -26.5 -58.5 t-59.5 -23.5h-225q-35 0 -59.5 23.5t-26.5 58.5z" />
<glyph unicode="&#x22;" horiz-adv-x="776" d="M0 1364l2 152q0 23 16.5 40t40.5 17l193 -2q27 0 41 -17q16 -16 16 -43l-8 -200q0 -33 -27 -60l-135 -129q-20 -16 -43 -14q-23 0 -39 16l-4 4q-14 16 -15 37t11 37l60 80q4 8 2 16q-4 8 -13 9l-41 -2q-20 0 -41 16q-16 20 -16 43zM397 1364v152q0 23 17.5 40t40.5 17 l194 -2q25 0 41 -17q16 -20 17 -43l-9 -200q-4 -37 -26 -60l-137 -129q-20 -16 -41 -14q-20 0 -41 16l-2 4q-16 16 -16.5 37t11.5 37l60 80q4 8 2 16q-8 8 -14 9l-39 -2q-25 0 -41 16q-18 18 -17 43z" />
<glyph unicode="#" horiz-adv-x="1517" d="M0 473l16 143q2 29 21.5 46.5t48.5 19.5l156 2q29 0 48 18.5t23 47.5l6 73q4 29 -18 54q-23 23 -51 24l-127 2q-29 2 -51 25q-23 25 -19 55l17 143q4 29 22.5 46.5t46.5 19.5l148 2q29 0 48 18.5t21 47.5l15 159q4 29 23.5 47.5t47.5 18.5h201q33 0 55 -25q20 -23 17 -57 l-17 -119q-4 -35 19 -57q20 -25 53 -25h29q29 0 47 18.5t22 47.5l13 151q4 29 23.5 47.5t47.5 18.5h201q33 0 55 -25q20 -23 17 -57l-15 -111q-6 -33 17 -57q20 -25 55 -25l115 2q31 0 53 -22q20 -25 18 -55l-20 -203q-4 -29 -24.5 -47.5t-49.5 -16.5l-155 4 q-29 0 -49.5 -17t-24.5 -44l-4 -29q-2 -33 18 -57q20 -25 53 -25l129 2q33 0 56 -22q20 -25 18 -55l-22 -203q-4 -29 -23.5 -47.5t-48.5 -16.5l-172 4q-29 2 -49.5 -15t-24.5 -46l-20 -154q-4 -27 -23.5 -44t-46.5 -17h-143q-31 0 -54 23q-23 25 -18 55l12 133q2 31 -18 55 q-18 23 -51 23l-72 2q-29 2 -48.5 -15.5t-23.5 -46.5l-24 -168q-4 -27 -23.5 -44t-46.5 -17h-143q-31 0 -53 23q-23 25 -19 55l14 147q2 31 -18 56q-23 23 -51 24l-135 2q-33 4 -52 25q-23 25 -18 55zM625 739q0 -23 12 -32q12 -16 33 -17l108 2q39 4 43 41l8 105 q2 16 -10 32q-14 14 -31 15l-104 2q-16 2 -28.5 -9.5t-14.5 -27.5z" />
<glyph unicode="$" horiz-adv-x="960" d="M0 1077q8 143 96 226t223 112q12 0 13 12v62q0 35 26 61q29 25 66 23l106 -6q35 0 60 -29q25 -25 20 -61l-2 -45q0 -14 13 -15q47 -8 96 -19.5t100 -27.5q33 -8 51 -43q14 -28 2 -67l-71 -201q-10 -35 -42 -49.5t-67 -3.5q-27 10 -57.5 16t-59.5 6q-31 0 -54 -11t-34 -40 q-10 -29 16.5 -48.5t70.5 -38t100.5 -42t105.5 -62t85 -97t40 -148.5q4 -72 -16.5 -129.5t-58 -102.5t-92 -76.5t-120.5 -52.5q-10 -4 -10 -12l-6 -92q-4 -35 -27.5 -57.5t-58.5 -22.5h-96q-35 0 -60.5 25.5t-25.5 60.5v53q0 14 -15 15q-41 2 -80.5 7t-80.5 13 q-31 8 -50.5 31.5t-17.5 56.5l6 211q2 37 31 61q25 25 63 21q16 -2 32 -2h32q33 0 63.5 4t54 14.5t37 28.5t9.5 47q-4 37 -38 58.5t-82 40t-102.5 39t-98.5 56t-71.5 93t-23.5 147.5z" />
<glyph unicode="%" horiz-adv-x="1433" d="M0 1239q0 86 25.5 148.5t67.5 104.5t96.5 62.5t111.5 20.5t114.5 -21.5t101.5 -63.5t71.5 -103.5t27.5 -143.5q0 -72 -26.5 -134t-70.5 -109.5t-101.5 -75t-118.5 -27.5t-116.5 26.5t-95.5 73.5t-63.5 108.5t-23.5 133.5zM180 197.5q8 -33.5 37 -52.5l113 -69 q27 -18 65 -13q33 8 54 41l733 1225q18 31 10 64.5t-39 52.5l-131 82q-33 18 -68 10q-35 -10 -53 -39l-713 -1237q-16 -31 -8 -64.5zM240 1239q0 -35 19.5 -58.5t47.5 -23.5q29 0 48.5 23.5t19.5 58.5t-19.5 59.5t-48.5 24.5t-48 -24.5t-19 -59.5zM745 338q0 86 26 148.5 t68 104.5t96 62.5t112 20.5q57 0 114.5 -21.5t101.5 -63.5t71.5 -103.5t27.5 -143.5q0 -72 -26.5 -134.5t-70.5 -109.5t-101.5 -74.5t-119.5 -27.5q-61 0 -116.5 26.5t-95 73.5t-63.5 108.5t-24 133.5zM985 340q0 -35 19.5 -58.5t48.5 -23.5t48 23.5t19 58.5t-19 58.5 t-48 23.5t-48.5 -23.5t-19.5 -58.5z" />
<glyph unicode="&#x26;" horiz-adv-x="1005" d="M0 1069q0 66 37 126t99.5 106.5t142 74t165.5 27.5q37 0 74 -5t72 -18q6 -4 12 2q6 2 6 11l4 69q4 35 29 58.5t59 21.5h93q39 0 65 -33q25 -33 16 -71l-57 -267q-8 -39 -45 -57q-35 -18 -72 -4q-70 29 -129 29q-57 0 -88.5 -23.5t-31.5 -58.5t36.5 -71t120.5 -62 q33 -10 49.5 -39t8.5 -64l-23 -86q-6 -29 -27.5 -46t-50.5 -19q-33 -2 -60.5 -15.5t-48 -34t-31.5 -46t-11 -50.5q0 -35 29.5 -61.5t97.5 -26.5q43 0 102 13.5t139 44.5q35 14 74 -5q33 -20 43 -59l59 -317q8 -35 -14 -68q-23 -31 -59 -33l-90 -10q-35 -4 -62.5 17.5 t-32.5 56.5l-12 96q-4 8 -8 10q-4 4 -14 0q-74 -41 -140.5 -58.5t-126.5 -17.5q-88 0 -157.5 34t-117.5 90.5t-73.5 127t-25.5 144.5q0 84 33.5 161.5t107.5 137.5q4 8 4 12q0 6 -6 12q-88 57 -126 120t-38 124z" />
<glyph unicode="'" horiz-adv-x="376" d="M0 1364l2 152q0 23 16.5 40t40.5 17l193 -2q27 0 41 -17q16 -16 16 -43l-8 -200q0 -33 -27 -60l-135 -129q-20 -16 -43 -14q-23 0 -39 16l-4 4q-14 16 -15 37t11 37l60 80q4 8 2 16q-4 8 -13 9l-41 -2q-20 0 -41 16q-16 20 -16 43z" />
<glyph unicode="(" horiz-adv-x="624" d="M0 801q4 135 38 247.5t81 202.5t97 156t87 104q23 23 55.5 26t59.5 -17l63 -50q29 -23 33 -57q5 -36 -18 -65q-33 -39 -66 -95.5t-59.5 -127t-43 -153.5t-16.5 -171q0 -135 47.5 -275.5t165.5 -275.5q23 -27 23 -55q0 -29 -21 -56l-69 -86q-25 -31 -66 -30q-37 -2 -65 26 q-166 186 -248 379t-78 373z" />
<glyph unicode=")" horiz-adv-x="624" d="M-1.5 195.5q1.5 31.5 24.5 54.5q119 135 166 275.5t47 275.5q0 88 -16.5 171t-43 153.5t-59.5 127t-66 95.5q-25 27 -20 65q6 37 35 57l63 50q27 20 59.5 17t55.5 -26q37 -39 87 -104.5t97 -155.5t81 -202.5t38 -247.5q4 -180 -78 -372.5t-250 -379.5q-27 -29 -65 -26 q-39 0 -64 30l-70 86q-23 25 -21.5 56.5z" />
<glyph unicode="*" horiz-adv-x="604" d="M2 1253q8 18 25 25l47 20q8 4 8 13q0 10 -8 14l-47 25q-16 10 -23 26q-4 18 6 35l47 72q10 18 29 20q14 2 33 -8l41 -31q6 -6 16 0q6 2 6 13l-2 53q0 20 15 33q12 12 30 12l86 -4q16 0 31 -15q12 -16 10 -32l-4 -51q-4 -10 6 -15q6 -8 15 0l45 29q16 10 35 4 q16 -2 26 -21l41 -77q8 -18 2 -33q-6 -16 -24 -27l-48 -20q-8 -4 -8 -13q0 -10 8 -12l48 -24q18 -10 20 -29q6 -16 -4 -33l-47 -74q-8 -14 -29 -18q-18 -4 -33 8l-41 29q-8 4 -16 2q-10 -4 -6 -14l2 -54q0 -18 -14 -30q-12 -16 -31 -13l-86 4q-23 0 -31 15q-14 14 -10 33 l4 51q2 6 -6 14q-8 4 -14 0l-46 -29q-14 -10 -34 -6q-23 6 -27 23l-41 76q-8 18 -2 34z" />
<glyph unicode="+" horiz-adv-x="776" d="M0 684l2 141q2 35 26.5 59.5t59.5 24.5h90q14 0 15 15v88q0 35 24.5 60.5t58.5 25.5l146 2q37 0 61 -25q27 -25 27 -61v-86q0 -6 4 -10q2 -4 10 -5h90q37 0 62 -24q27 -27 24 -64l-2 -145q0 -35 -25.5 -59.5t-60.5 -24.5h-88q-14 0 -14 -14v-90q0 -37 -27 -62 q-25 -29 -61 -24l-141 2q-35 0 -59.5 25.5t-24.5 60.5v88q0 14 -15 14h-96q-37 0 -61 27q-25 25 -25 61z" />
<glyph unicode="," horiz-adv-x="448" d="M0 176q0 78 54 132t132 54q51 0 92 -22.5t67 -58t35 -76.5t-1 -78q-16 -53 -53 -121.5t-107 -146.5q-16 -18 -38.5 -23.5t-45.5 4.5l-16 8q-27 10 -37 36t0 53l18 57q2 8 -4 16q-8 6 -24.5 19.5t-31.5 33t-27.5 48t-12.5 65.5z" />
<glyph unicode="-" horiz-adv-x="792" d="M0 680l2 147q2 35 26.5 59.5t59.5 26.5l545 5q37 0 61 -25q25 -29 25 -64l-2 -153q-2 -35 -26.5 -59.5t-59.5 -24.5h-545q-37 0 -61 26q-25 25 -25 62z" />
<glyph unicode="." horiz-adv-x="440" d="M0 176q0 78 54.5 132t131.5 54q39 0 74 -14t60.5 -39.5t40 -59.5t14.5 -73t-14.5 -73.5t-40 -60.5t-60.5 -40t-74 -14t-72.5 14t-59 40t-40 60.5t-14.5 73.5z" />
<glyph unicode="/" horiz-adv-x="993" d="M4 109q-12 32 4 65l598 1346q16 35 49 47t66 -4l160 -76q31 -16 43 -48t-2 -65l-605 -1343q-16 -33 -49 -45t-65 4l-154 71q-33 16 -45 48z" />
<glyph unicode="0" horiz-adv-x="1329" d="M0 772q0 162 50 304.5t137 249t204 167.5t250 61t250 -61t204 -167.5t137 -249t50 -304.5t-50 -304t-137 -248.5t-204 -168t-250 -61.5t-250 61.5t-204 168t-137 248.5t-50 304zM446 772q0 -53 15.5 -99t42 -80t61.5 -54.5t76 -20.5t77 20.5t61.5 54.5t41 80t15.5 99 q0 51 -15.5 97t-41 81t-61.5 54.5t-77 19.5t-76 -19.5t-61.5 -54.5t-42 -81t-15.5 -97z" />
<glyph unicode="1" horiz-adv-x="796" d="M0 1126q-4 25 6 47.5t33 36.5q31 18 72 47t84 67t80.5 83t60.5 94q10 23 31.5 36t46.5 11l211 -2q35 -2 58.5 -25.5t23.5 -58.5l6 -1382q0 -37 -27 -62q-25 -25 -61 -22l-275 6q-35 2 -59.5 25.5t-24.5 58.5l-2 750q0 6 -4 10t-10 4l-127 -10q-35 -2 -60.5 18.5 t-29.5 52.5z" />
<glyph unicode="2" horiz-adv-x="1157" d="M0 1022q20 252 165.5 397.5t401.5 145.5t378 -117t122 -377v-34.5t-2 -37.5q-4 -70 -24.5 -131t-51.5 -116.5t-68.5 -102.5t-76.5 -86q-92 -92 -207 -162l350 52q16 4 30.5 -3.5t29.5 -17.5q27 -27 26 -61l10 -283q0 -37 -24 -63q-25 -25 -62 -25l-897 4q-37 0 -59 29 q-27 29 -21 63q14 135 66.5 231.5t118 167t135.5 124t119 104.5q33 33 59.5 74t45 82t28.5 80.5t10 72.5q0 41 -17.5 68.5t-56.5 32.5q-33 2 -58.5 -15.5t-46 -45.5t-34.5 -60.5t-22 -63.5q-10 -33 -38 -49t-59 -10l-202 43q-33 8 -51.5 32.5t-16.5 57.5z" />
<glyph unicode="3" horiz-adv-x="1224" d="M0 397q-4 31 13.5 55.5t47.5 34.5l232 68q29 10 55.5 -1t42.5 -38q29 -47 59.5 -67.5t63.5 -20.5q51 0 90 41t39 92q0 35 -23.5 68t-82.5 55q-53 20 -54 80l-2 84q0 53 45 76q37 20 53.5 43.5t16.5 48.5q0 41 -37 73.5t-84 32.5q-39 0 -72.5 -29.5t-48.5 -105.5 q-6 -33 -31.5 -52.5t-60.5 -16.5l-160 16q-35 2 -57 26.5t-20 59.5q4 127 35.5 223t86 161.5t126 104.5t157.5 52q74 12 156 12q80 0 158.5 -15.5t146 -54.5t117 -104.5t67.5 -165.5q4 -29 7 -53.5t3 -46.5q0 -94 -31.5 -152.5t-68.5 -93.5q-43 -39 -98 -60q59 -12 106 -48 t81 -86t51.5 -112.5t17.5 -127.5q0 -84 -31 -167t-97.5 -150.5t-172 -111.5t-254.5 -51q-121 -4 -211 15.5t-153.5 55.5t-105.5 82t-66.5 94t-36 95t-15.5 82z" />
<glyph unicode="4" horiz-adv-x="1216" d="M2 621q-6 29 10 57l502 829q25 41 76 41l352 -10q35 -2 58.5 -25.5t23.5 -58.5v-668q0 -14 14 -14h41q39 0 64 -29q23 -23 22 -63l-20 -246q-2 -33 -25.5 -55.5t-56.5 -22.5l-31 -2q-14 0 -14 -14l4 -250q0 -35 -23.5 -59.5t-58.5 -26.5l-250 -8q-39 0 -61 22 q-27 27 -27 60l-8 252q0 14 -14 14l-459 -12q-33 -2 -56.5 18.5t-29.5 52.5zM502 793q-4 -8 2 -15q2 -6 12 -6h57q8 0 11 4q4 2 4 10l-2 99q0 10 -11 14q-8 2 -16 -8z" />
<glyph unicode="5" horiz-adv-x="1216" d="M2 436q-6 37 14 66t58 35l245 32q33 4 60 -14t35 -51q8 -39 33.5 -78t84.5 -55q70 -18 114 34t48 134q2 41 -9 84t-32.5 78.5t-51.5 58t-62 22.5q-25 0 -50.5 -15t-50.5 -50q-23 -35 -65 -35l-281 -10q-37 -4 -61 24q-27 25 -27 62l10 704q0 35 24.5 59.5t59.5 24.5 l893 2q33 2 62 -24q25 -29 22 -64l-10 -241q-4 -35 -27.5 -57.5t-58.5 -22.5l-539 4q-6 0 -10 -4q-4 -8 -4 -11v-116q0 -10 8 -13q8 -4 15 2q59 45 126.5 67t139.5 22q84 0 165 -33t143 -99.5t101 -168t39 -238.5q0 -96 -25.5 -190.5t-86 -171t-157.5 -129t-241 -62.5 q-20 -2 -39.5 -2h-38.5q-162 0 -267 47t-169.5 115.5t-95.5 144.5t-41 133z" />
<glyph unicode="6" horiz-adv-x="1269" d="M0 705q6 197 70.5 356.5t167 271t232.5 172t269 60.5q102 0 201.5 -34t194.5 -106q25 -18 32 -45.5t-6 -56.5l-88 -188q-16 -35 -51 -48q-35 -10 -68 9q-31 18 -74.5 32.5t-103.5 14.5q-33 0 -69.5 -5t-77.5 -20q-61 -18 -98 -53t-58 -78q-2 -6 4 -16q6 -6 17 -2 q49 29 103 41t112 12q86 0 169 -29.5t150.5 -86t111.5 -139.5t50 -189q10 -152 -32 -263.5t-116.5 -186.5t-175 -111.5t-209.5 -36.5q-121 0 -240.5 46t-213.5 137t-151.5 226t-51.5 316zM471 518q4 -47 30.5 -85t82.5 -52q33 -8 59.5 1t44 30.5t25.5 51.5t6 64 q-2 20 -13.5 52t-29 61t-41.5 48.5t-55 19.5q-25 0 -46.5 -17.5t-37 -45.5t-22.5 -61.5t-3 -66.5z" />
<glyph unicode="7" horiz-adv-x="1028" d="M0 1458q0 37 25 62t59 24l770 4q35 2 59.5 -22.5t24.5 -59.5l4 -397q2 -18 -6 -33l-408 -989q-10 -25 -31.5 -39t-50.5 -12l-294 8q-47 4 -68 39q-25 35 -8 78l381 952q2 6 0 12q-6 6 -13 7l-358 4q-35 2 -58.5 25.5t-25.5 58.5z" />
<glyph unicode="8" horiz-adv-x="1253" d="M0 430q0 117 65.5 214t176.5 163q8 4 8 10q0 8 -6 12q-76 59 -120 141.5t-44 176.5q0 90 41 170t110.5 139.5t163.5 93t203 33.5q106 0 201.5 -33.5t165 -93t110.5 -139.5t41 -170q0 -94 -44 -176t-120 -142q-6 -4 -6 -12q4 -8 8 -10q111 -66 176.5 -163t65.5 -214 q0 -98 -47 -183t-128 -148.5t-190.5 -100.5t-232.5 -37t-232.5 37t-190.5 100.5t-128 148.5t-47 183zM475 485q0 -43 36 -73.5t87 -30.5q53 0 89 30.5t36 73.5t-36 74t-89 31q-51 0 -87 -31t-36 -74zM498 1075q0 -35 29.5 -59.5t70.5 -24.5t70.5 24.5t29.5 59.5t-29.5 60.5 t-70.5 25.5t-70.5 -25.5t-29.5 -60.5z" />
<glyph unicode="9" horiz-adv-x="1273" d="M0 946v33q0 143 51 252.5t134 183.5t189.5 111t217.5 37q115 0 226.5 -41t197.5 -123t138 -207t50 -293q-4 -217 -47 -388t-124 -289t-198.5 -179t-269.5 -61q-174 0 -383 81q-31 10 -45 40t-4 63l64 209q10 33 41 49t63 6q41 -12 86 -19.5t90 -7.5q92 0 169 29t110 92 q6 8 -2 17q-8 6 -19 2q-102 -68 -235 -68q-86 0 -171 28.5t-155 85t-117 138.5t-55 186q-2 16 -2 33zM457 971q0 -29 10 -57.5t26.5 -50t40 -35t50.5 -13.5t50 13.5t41.5 35t29 50t10.5 57.5t-10.5 56.5t-28 49t-40.5 34.5t-50 13t-50.5 -13t-41 -34.5t-27.5 -49.5t-10 -56z " />
<glyph unicode=":" horiz-adv-x="456" d="M0 504q0 78 54 131t132 53t132.5 -53t54.5 -131q0 -39 -14.5 -73t-40 -59.5t-59.5 -40t-73 -14.5t-72.5 14.5t-59 40t-40 59.5t-14.5 73zM0 1004q0 78 54.5 132t131.5 54q78 0 132.5 -54.5t54.5 -131.5q0 -78 -54.5 -132.5t-132.5 -54.5t-132 54.5t-54 132.5z" />
<glyph unicode=";" horiz-adv-x="460" d="M0 504q0 78 54 131t132 53q51 0 91 -22.5t66 -57.5t35 -75.5t-1 -77.5q-16 -53 -53 -121t-107 -148q-16 -16 -38.5 -21t-45.5 5l-14 8q-27 10 -38 36t-1 52l20 58q4 6 -4 14t-24.5 20.5t-31.5 33t-27.5 48t-12.5 64.5zM0 1004q0 78 54.5 132t131.5 54q78 0 132.5 -54.5 t54.5 -131.5q0 -78 -54.5 -132.5t-132.5 -54.5t-132 54.5t-54 132.5z" />
<glyph unicode="&#x3c;" horiz-adv-x="675" d="M0 616v220q0 55 49 77l428 197q37 18 74 -2q39 -20 45 -59l25 -127q4 -31 -10.5 -57.5t-43.5 -39.5l-215 -86q-10 -4 -10 -12q0 -10 10 -14l215 -86q29 -10 43.5 -37t10.5 -58l-25 -126q-6 -43 -45 -62q-35 -18 -74 -2l-428 197q-23 10 -36 31.5t-13 45.5z" />
<glyph unicode="=" horiz-adv-x="737" d="M0 535l2 96q2 35 25.5 59.5t58.5 24.5l492 4q33 0 61 -25q25 -29 25 -63l-2 -101q-2 -35 -27 -59.5t-60 -24.5h-489q-37 0 -61 25q-25 27 -25 64zM0 897l2 96q2 35 25.5 59.5t58.5 24.5l492 4q33 0 61 -24q25 -29 25 -64l-2 -100q-2 -35 -27 -59.5t-60 -24.5h-489 q-37 0 -61 25q-25 27 -25 63z" />
<glyph unicode="&#x3e;" horiz-adv-x="700" d="M2 532q-6 31 8.5 57.5t42.5 37.5l217 86q8 4 9 14q0 8 -9 12l-217 86q-29 12 -43 39t-8 58l23 127q10 41 45 59q39 20 75 2l426 -197q49 -23 50 -77v-220q0 -25 -13.5 -46t-36.5 -31l-426 -197q-39 -16 -75 2q-35 18 -45 62z" />
<glyph unicode="?" horiz-adv-x="1052" d="M2 1162q-8 32 6 61q49 98 109.5 164.5t126 107.5t136.5 58.5t138 17.5q29 0 56.5 -3t56.5 -7q119 -23 192.5 -73t112.5 -110.5t50 -123t5 -111.5q-10 -113 -56 -192t-100.5 -141t-104.5 -117.5t-68 -119.5q-20 -59 -82 -59h-209q-41 0 -68 31q-27 33 -16 73 q18 82 60 141.5t84 107.5t75 93.5t37 98.5q2 41 -26 63.5t-68 22.5q-37 0 -78 -22.5t-74 -75.5q-20 -29 -55 -39q-35 -6 -66 12l-137 92q-29 18 -37 50zM227 229q0 47 19.5 88t52.5 72t77 48.5t93 17.5t93 -17.5t77 -48.5t52.5 -72t19.5 -88t-19.5 -88t-52.5 -71.5t-77 -48 t-93 -17.5t-93 17.5t-77 48t-52.5 71.5t-19.5 88z" />
<glyph unicode="@" horiz-adv-x="1622" d="M0 764q0 188 62.5 339.5t173 257t265 163t339.5 57.5q168 0 299 -62.5t222 -160.5t139 -218t54 -235q6 -117 -26.5 -213t-89 -165.5t-128 -107.5t-141.5 -38q-61 0 -115.5 31.5t-92.5 97.5q-4 6 -11 6q-6 4 -10 0q-131 -80 -240 -80q-121 0 -187.5 93.5t-63.5 252.5 q0 82 23.5 138.5t59 89t80.5 47t90 14.5q47 0 89.5 -12t68.5 -31q6 -6 12 -2q8 2 11 10l2 8q12 43 57 43l84 -4q27 -4 41 -22q16 -18 12 -45q-4 -29 -7 -55.5t-3 -53.5q0 -61 10.5 -115.5t27.5 -94.5t37.5 -61.5t41.5 -17.5q25 4 45 55.5t29 162.5q8 117 -26 205.5 t-96.5 149t-145.5 93.5t-171 37q-133 6 -236.5 -41t-172 -130t-100 -190.5t-21.5 -220.5q12 -133 67.5 -226t138.5 -151.5t186 -85t212 -26.5q78 0 154.5 12t148.5 35q33 10 62.5 -4t42.5 -45q6 -16 13 -34.5t11 -35.5q12 -31 0 -60.5t-43 -43.5q-104 -51 -220 -64.5 t-224 -13.5h-60q-154 4 -295 59.5t-248.5 155.5t-172 240.5t-64.5 312.5zM688 741q0 -29 19.5 -49t58.5 -20q37 -1 82 22q8 6 8 15v82q0 10 -8 12q-39 16 -72 16q-43 0 -65.5 -24.5t-22.5 -53.5z" />
<glyph unicode="A" horiz-adv-x="1409" d="M2 125l348 1358q8 29 30.5 46t51.5 17l514 6q31 0 54.5 -18t29.5 -47l328 -1362q3 -11 3 -21q0 -27 -20 -51q-27 -33 -65 -33h-361q-31 0 -54 19.5t-30 50.5l-14 78q-4 12 -14 12l-236 2q-14 0 -14 -12l-14 -84q-4 -31 -28 -51.5t-56 -20.5l-371 4q-43 4 -66 35 q-18 25 -18 53q0 9 2 19zM618 623q0 -8 5 -13q4 -4 10 -4l84 2q8 0 12 4q2 5 2 13l-47 247q-4 12 -14 13q-12 -4 -15 -13z" />
<glyph unicode="B" horiz-adv-x="1171" d="M0 106v1397q0 35 23.5 59.5t58.5 26.5q68 4 143.5 7t153.5 3q100 0 199.5 -11t184.5 -46t148.5 -97.5t92.5 -164.5q12 -43 12 -90q0 -78 -49 -161t-183 -171q63 -4 122 -41t103 -95t70.5 -132t26.5 -150q0 -72 -27.5 -141.5t-87.5 -124.5q-86 -82 -248.5 -122t-412.5 -40 q-57 0 -119.5 2t-130.5 6q-35 4 -57.5 28t-22.5 58zM434 375q0 -10 6 -13q4 -4 13 -2q16 4 43.5 13.5t51.5 28.5q26 18 44 44q17 24 16 57v7q-2 37 -21.5 62.5t-44 42t-50 24.5t-41.5 12q-6 2 -11 -2q-6 -6 -6 -12v-262zM434 1018q0 -8 6 -10q8 -4 13 -2q14 4 35.5 12 t41 23.5t32.5 38t11 53.5t-16 52t-32.5 34.5t-39 20.5t-32.5 11q-8 2 -13 -2q-6 -6 -6 -12v-219z" />
<glyph unicode="C" horiz-adv-x="1308" d="M0 786.5v30.5q0 150 40 291t122 251.5t207 178.5t293 72h14q78 0 152 -20q82 -22 154.5 -69.5t130.5 -120.5t97 -173q6 -15 6 -30q0 -17 -8 -34q-14 -31 -47 -45l-280 -114q-31 -12 -60.5 -2t-46.5 38q-49 86 -121 86q-33 0 -63.5 -20.5t-55 -59t-40 -98t-15.5 -135.5 q0 -16 1 -34.5t3 -37.5q6 -63 25.5 -111t47.5 -81t60.5 -50.5t65.5 -17.5q35 0 64.5 19.5t50.5 60.5q14 29 42.5 42t57.5 3l289 -90q35 -8 51 -43q9 -18 9 -37q0 -15 -5 -30q-27 -72 -74 -142.5t-113.5 -128t-151.5 -95.5t-189 -42q-24 -1 -48 -1q-149 1 -261 55 q-130 64 -217 171t-133 247t-52 286q-2 16 -2 30.5z" />
<glyph unicode="D" horiz-adv-x="1169" d="M0 90l4 1403q0 35 20.5 58.5t51.5 27.5q49 8 96 12t92 4q199 0 351.5 -69.5t257 -183t161 -258t64.5 -293.5q1 -18 1 -35q0 -134 -41 -260q-46 -144 -150.5 -255.5t-267.5 -180t-386 -68.5q-43 0 -87 2t-91 8q-33 4 -54.5 28.5t-21.5 59.5zM428 522q0 -8 4 -12t12 -4 q20 2 56.5 15.5t71 45t61 87t26.5 145.5t-26.5 142t-62 79t-72.5 34t-56 7q-6 0 -10 -4q-4 -8 -4 -10v-525z" />
<glyph unicode="E" horiz-adv-x="1124" d="M0 94l4 1370q0 35 23.5 59.5t58.5 24.5l854 17q37 0 61 -25q27 -27 27 -59v-244q0 -35 -23.5 -59.5t-58.5 -26.5l-340 -18q-14 0 -14 -15v-94q0 -14 14 -14h125q37 0 62 -27q25 -25 24 -61l-14 -228q-2 -35 -25.5 -57.5t-58.5 -22.5h-141q-14 0 -15 -14l-4 -108 q0 -2 4 -11q8 -4 12 -4l363 12q37 0 61 -24q27 -25 27 -62l-8 -317q0 -35 -25.5 -59.5t-60.5 -24.5l-848 6q-35 0 -59.5 25.5t-24.5 60.5z" />
<glyph unicode="F" horiz-adv-x="1116" d="M0 104l4 1344q0 35 23.5 59.5t58.5 24.5l852 16q37 0 63 -26q25 -25 25 -62l-8 -303q0 -35 -22.5 -58.5t-57.5 -25.5l-342 -16q-2 0 -10 -4q-4 -8 -4 -13l10 -178q0 -12 14 -12l187 2q37 0 63 -27q24 -24 24 -54q0 -4 -1 -9l-13 -213q-2 -35 -25.5 -57.5t-58.5 -22.5 l-204 -2q-2 0 -11 -4q-4 -8 -4 -10l15 -351v-5q0 -33 -23 -56q-27 -27 -63 -27l-408 6q-35 0 -59.5 25t-24.5 59z" />
<glyph unicode="G" horiz-adv-x="1339" d="M0 733q-1 25 -1 49q0 179 53 322q59 162 160 272.5t231 168t262 57.5q82 0 160.5 -24t147 -71t124 -118.5t90.5 -169.5q5 -14 5 -29q0 -19 -9 -39q-16 -31 -49 -43l-297 -94q-14 -4 -27 -4q-20 0 -38 9q-30 15 -42 46q-25 63 -84 63q-37 0 -77 -25.5t-71.5 -76.5 t-51.5 -127q-16 -63 -16 -141q0 -16 1 -33q2 -57 14.5 -111.5t33 -96.5t50 -69.5t68.5 -31.5q12 -1 22 -1q48 0 78 21q37 27 55.5 66t21.5 80t3 61q0 6 -4 10t-10 4l-37 -2q-5 -1 -11 -1q-28 0 -51 18q-26 22 -30 57l-4 31q-1 6 -1 11q0 32 21 54q25 29 64 29l420 8h6 q31 0 53 -20q24 -23 27 -58q2 -20 3 -44.5t1 -53.5q0 -61 -7.5 -135t-29 -148.5t-59.5 -145.5t-98 -127t-146 -92t-203 -40q-28 -1 -56 -1q-172 0 -289 55q-136 63 -217 170.5t-117 242.5t-42 268z" />
<glyph unicode="H" horiz-adv-x="1388" d="M0 117l2 1380q0 33 27 59q25 25 59 25l379 -2q35 0 59 -27q25 -25 25 -59l-10 -557q0 -14 14 -14l168 -7q8 0 10 5q6 2 6 10v567q0 35 25 59q27 25 61 25l377 -2q37 0 62 -27q25 -25 24 -59l-24 -1378q-2 -35 -27 -59.5t-59 -24.5h-357q-35 0 -59 26q-25 25 -25 60v387 q0 14 -14 14h-176q-10 0 -15 -14l-6 -389q0 -35 -24.5 -59.5t-59.5 -24.5h-358q-35 0 -59 26q-25 25 -25 60z" />
<glyph unicode="I" horiz-adv-x="688" d="M0 109l4 1380q0 37 25 61q25 25 59 25l422 -4q37 0 61 -25q23 -23 23 -56v-5l-25 -1379q-2 -35 -26.5 -59t-59.5 -24h-399q-33 0 -59 26q-25 25 -25 60z" />
<glyph unicode="J" horiz-adv-x="1253" d="M0 182l51 324q10 41 45 59q22 10 42 10q19 0 36 -8q45 -18 105.5 -34.5t126.5 -16.5q74 0 145 27q68 29 93.5 132t25.5 236q0 72 -5.5 147t-13.5 144.5t-17.5 131t-17.5 106.5q-6 18 -0.5 35.5t17.5 29.5q20 29 61 33l363 23h6q31 0 55 -19q27 -22 31 -55 q8 -76 16.5 -204t8.5 -279q0 -125 -9.5 -255.5t-33 -248t-64.5 -211.5t-104 -150q-86 -74 -198 -101.5t-228 -27.5q-72 0 -141.5 8.5t-132 20.5t-115 25.5t-89.5 25.5q-31 10 -47 36t-12 56z" />
<glyph unicode="K" horiz-adv-x="1300" d="M0 100v1405q0 35 23.5 59.5t58.5 26.5q37 0 82 1t93 3t95 3t84 1t62 -26q25 -25 24 -62l-12 -383q0 -14 12 -16q10 0 15 10l139 414q8 27 29.5 42t48.5 15l338 4h5q42 0 66 -34q16 -24 16 -50q0 -15 -5 -30l-238 -629l285 -704q6 -16 6 -31q0 -24 -15 -47 q-23 -37 -65 -39l-342 -27q-29 -2 -51.5 11.5t-32.5 39.5l-195 449q-4 12 -16 8q-10 0 -10 -14l12 -391v-5q0 -33 -23 -57q-25 -27 -61 -27l-342 -6q-35 0 -61 25q-25 25 -25 61z" />
<glyph unicode="L" horiz-adv-x="980" d="M0 113q2 350 4 690t4 690q0 35 24.5 59.5t59.5 26.5h81h90t92 -1t85 -1q35 0 59.5 -24.5t24.5 -59.5l-6 -969l289 -16q35 -4 57.5 -27.5t22.5 -56.5l4 -318q0 -37 -27 -61q-25 -25 -59 -25l-721 7q-35 0 -59.5 25.5t-24.5 60.5z" />
<glyph unicode="M" horiz-adv-x="1748" d="M0 113l23 1390q0 35 24.5 59.5t58.5 24.5l486 6q29 0 50.5 -16t31.5 -43l162 -528q4 -10 14 -11q12 0 12 11l137 530q8 29 32 47.5t52 15.5l455 -8q35 0 58.5 -23.5t25.5 -56.5l61 -1394v-5q0 -32 -22 -59q-24 -24 -59 -24h-3l-354 -4q-35 0 -58.5 22.5t-27.5 56.5 l-33 494q-4 14 -14 14t-14 -10l-76 -348q-6 -29 -29.5 -48.5t-54.5 -19.5l-166 2q-61 0 -82 60l-106 323q-4 10 -15 11q-12 -4 -12 -15l-4 -461q0 -35 -25 -59q-24 -24 -58 -24h-3l-383 4q-33 0 -59 26q-25 25 -25 60z" />
<glyph unicode="N" horiz-adv-x="1396" d="M0 127l20 1364q0 35 25 59.5t59 24.5h383q27 0 47.5 -13.5t30.5 -37.5l223 -531q6 -10 17 -10q12 4 12 14v500q0 35 24.5 60.5t59.5 25.5h344q35 0 60 -27q25 -23 24 -61l-45 -1386q-2 -35 -25.5 -57.5t-58.5 -24.5l-369 -4h-8q-53 0 -73 53l-181 448q-4 12 -16 8 q-10 0 -10 -12l-13 -407q0 -35 -24 -60q-28 -22 -59 -22h-3l-362 10q-35 2 -58.5 26.5t-23.5 59.5z" />
<glyph unicode="O" horiz-adv-x="1472" d="M0 805q0 166 55.5 312.5t150.5 255t224.5 172t274.5 63.5t274 -63.5t224 -172t150.5 -255t55.5 -312.5t-55.5 -312.5t-150.5 -256t-224 -172t-274 -62.5t-274.5 62.5t-224.5 172t-150.5 256t-55.5 312.5zM492 766q0 -57 18 -108.5t49 -89.5t73 -59.5t89 -21.5t89 21.5 t72.5 59.5t49 89.5t18.5 108.5t-18.5 108.5t-49 89t-72.5 59t-89 21.5t-89 -21.5t-73 -59t-49 -89t-18 -108.5z" />
<glyph unicode="P" horiz-adv-x="1177" d="M0 102l20 1391q0 31 20.5 54.5t53.5 27.5q63 10 122.5 13t115.5 3q203 0 350 -50t242.5 -131t140.5 -184.5t45 -209.5q0 -100 -38 -196.5t-110.5 -172.5t-178 -124t-240.5 -52q-14 -4 -15 -14v-355q0 -35 -24.5 -60.5t-59.5 -25.5h-360q-35 0 -59 25q-25 27 -25 61z M522 870q0 -8 4 -10q8 -4 13 -2q16 4 43.5 13.5t53.5 28t43 44.5q15 24 15 56v8q-2 37 -20.5 62.5t-43 41.5t-50 24.5t-41.5 12.5q-8 0 -13 -2q-4 -4 -4 -12v-265z" />
<glyph unicode="Q" horiz-adv-x="1554" d="M0 780q0 172 58.5 322.5t159.5 262.5t237.5 177.5t292.5 65.5t292 -65.5t237 -177.5t159.5 -262.5t58.5 -322.5q0 -154 -46 -290t-130 -244q-6 -10 -4 -23q0 -10 12 -18l123 -74q31 -16 41 -57q1 -8 1 -15q0 -27 -17 -53l-215 -280q-27 -33 -64 -33h-5q-36 0 -63 26 l-213 238q-10 14 -26 10q-72 -16 -141 -16q-156 0 -292.5 65.5t-237.5 177t-159.5 263t-58.5 323.5zM522 739q0 -59 19.5 -111.5t52.5 -91t78 -61t94 -22.5q51 0 95 22.5t77 61t52.5 91t19.5 111.5t-19.5 111.5t-52.5 91.5t-77 61.5t-95 22.5q-49 0 -94 -22.5t-78 -61.5 t-52.5 -91t-19.5 -112z" />
<glyph unicode="R" horiz-adv-x="1161" d="M0 94l20 1397q0 31 20.5 54.5t51.5 27.5q72 10 137.5 15t124.5 5q203 0 341.5 -49t222 -128t120.5 -178t37 -198q0 -66 -13 -127t-38 -115.5t-58.5 -96.5t-72.5 -66l217 -473q7 -18 7 -35q0 -21 -11 -41q-18 -37 -59 -43l-297 -49q-29 -4 -54.5 9t-38.5 40l-145 336 q-4 12 -16 8q-10 0 -11 -12v-281q0 -35 -25.5 -60.5t-60.5 -25.5h-315q-35 0 -59 27q-25 25 -25 59zM469 901q0 -6 6 -12q8 -4 12 -2q16 4 44 13t53.5 27.5t43.5 44.5q16 24 15 58v8q-2 37 -20.5 62.5t-43 42t-50 24t-42.5 11.5q-4 2 -12 -2q-6 -4 -6 -11v-264z" />
<glyph unicode="S" horiz-adv-x="1159" d="M0 1178q6 113 52 196.5t121 139t176.5 83t217.5 27.5q104 0 215 -20.5t226 -61.5q35 -10 49 -42q8 -18 8 -37q0 -13 -4 -27l-103 -301q-12 -35 -43 -50q-20 -9 -39 -9q-14 0 -28 5q-35 14 -75 24.5t-79 10.5q-37 0 -66.5 -14.5t-41.5 -50.5q-3 -10 -3 -19q1 -24 23 -42 q32 -24 85.5 -47t121.5 -53t127 -78t102 -124t50 -188q1 -14 1 -27q-1 -111 -45 -195q-50 -94 -137.5 -155.5t-205 -92t-248.5 -30.5q-139 0 -285 35q-31 6 -49.5 30.5t-16.5 53.5l9 313q2 37 30 62q22 21 53 21q6 0 13 -1q23 -2 46.5 -4t47.5 -2q39 0 76 5t64.5 18.5t44 37 t12.5 60.5q-6 47 -47 73.5t-98.5 49t-122 48t-118.5 72.5q-54 46 -88 118q-28 61 -29 154q0 16 1 34z" />
<glyph unicode="T" horiz-adv-x="1161" d="M0 1128l4 367q2 35 26.5 59.5t59.5 24.5l926 6q37 0 61 -26q25 -25 25 -62l-10 -371q-2 -33 -25 -56t-57 -26l-150 -4q-2 0 -10 -4q-4 -8 -4 -10l35 -911q0 -35 -23.5 -59.5t-58.5 -28.5l-437 -21h-5q-34 0 -58 25q-27 25 -27 61l21 940q0 6 -4 10q-2 4 -10 5l-191 -5h-5 q-31 0 -58 25q-25 25 -25 61z" />
<glyph unicode="U" horiz-adv-x="1509" d="M0 1049q0 113 6 226t14 224q2 35 26 56.5t58 23.5h447h5q32 0 56 -25q25 -25 25 -59q-2 -92 -2 -214v-243q0 -123 1 -224t5 -155q4 -63 26.5 -101t49.5 -38q23 0 43 34t31 112q6 47 9 109.5t5 133t3 147.5t1 152q0 80 -1 155t-1 134q0 35 24.5 60.5t59.5 25.5l397 4 q35 2 58.5 -20.5t27.5 -57.5q10 -111 17.5 -233.5t7.5 -249.5q0 -184 -25.5 -362.5t-97.5 -320.5t-201 -232.5t-336 -98.5q-22 -1 -43 -1q-128 0 -226 31q-114 36 -195.5 104.5t-135 167t-84 215t-43 248.5t-12.5 272z" />
<glyph unicode="V" horiz-adv-x="1312" d="M2 1444q-1 8 -1 15q0 27 17 48q25 27 62 31l350 21h6q30 1 54 -19q26 -22 30 -55l98 -737q0 -12 15 -13q10 0 14 13l68 731q4 35 27.5 55t58.5 20h370q41 0 66 -30q19 -21 19 -47q0 -11 -3 -23l-303 -1348q-6 -29 -28.5 -47t-53.5 -18l-555 -6q-31 0 -55.5 20.5 t-28.5 48.5z" />
<glyph unicode="W" horiz-adv-x="1773" d="M0 1493q-1 5 -1 9q0 29 24 52q23 25 61 29l356 4q35 2 58.5 -20.5t27.5 -57.5q12 -145 24.5 -288.5t22.5 -288.5q2 -12 15 -14q10 0 14 10q16 53 34.5 121.5t35.5 128.5q8 29 30.5 47t53.5 16l194 -4q29 0 51.5 -17.5t30.5 -45.5l53 -218q2 -12 17 -12q12 4 12 12l74 553 q4 33 27.5 53.5t56.5 20.5l368 -2q41 0 66 -31q20 -23 20 -51q0 -8 -2 -16l-204 -1407q-4 -33 -28 -53.5t-56 -20.5h-385q-59 0 -80 53l-178 447q-8 8 -15 8q-10 0 -14 -10l-125 -416q-8 -27 -29.5 -43t-50.5 -16l-389 -7q-35 0 -58.5 22.5t-27.5 57.5z" />
<glyph unicode="X" horiz-adv-x="1388" d="M4 1464q-4 14 -4 27q0 26 16 47q25 35 66 35l383 10q31 2 54.5 -16.5t29.5 -46.5l98 -398q4 -12 15 -12q12 4 14 12l86 394q6 29 29.5 47t52.5 18h381q45 0 69 -35q17 -23 17 -48q0 -15 -6 -30l-211 -616l241 -709q4 -14 4 -27q0 -26 -16 -48q-25 -37 -70 -37l-401 4 q-31 0 -53.5 18.5t-30.5 46.5l-78 340q-4 10 -14 11q-12 0 -14 -13l-52 -342q-4 -33 -27.5 -53t-56.5 -20h-411q-39 0 -68 32q-17 23 -17 50q0 12 3 24l162 664z" />
<glyph unicode="Y" horiz-adv-x="1329" d="M6 1464q-6 17 -6 33q0 24 14 45q27 39 70 39l354 2q29 0 51.5 -16.5t30.5 -44.5l111 -371q4 -10 14 -10t14 10l89 369q8 29 31.5 48t54.5 17l362 -12q45 -4 70 -39q15 -22 15 -45q0 -16 -7 -33l-359 -924l31 -421q1 -5 1 -10q0 -31 -21 -54q-27 -27 -62 -27l-418 -6 q-37 0 -61 27q-25 25 -25 63l17 414z" />
<glyph unicode="Z" horiz-adv-x="1116" d="M0 1503q0 33 25 62q24 24 56 24h3l846 2q35 0 59 -24q25 -25 25 -62v-366q0 -33 -17 -52l-422 -587q-4 -10 0 -17q4 -8 13 -6l340 4q37 0 61 -26q25 -25 25 -64l-17 -307q-4 -35 -27.5 -57.5t-58.5 -22.5l-796 8q-35 0 -59.5 24.5t-24.5 59.5l-2 328q0 31 16 53l449 600 q4 8 2 17q-4 8 -13 8l-387 -6q-35 0 -60.5 23.5t-25.5 58.5z" />
<glyph unicode="[" horiz-adv-x="745" d="M0 84v1405q0 37 25 61q27 25 61 25l483 -4q35 0 58.5 -24.5t25.5 -59.5l4 -137q2 -35 -22.5 -60.5t-59.5 -27.5l-206 -9q-14 0 -15 -14v-883q0 -6 4 -10t11 -4l204 14q37 2 66 -22q27 -27 27 -64l-2 -182q0 -35 -25 -59.5t-59 -26.5l-492 -4q-37 0 -61 27q-23 23 -27 59z " />
<glyph unicode="\" horiz-adv-x="976" d="M4 1442q12 33 45 49l158 76q31 14 65 2q35 -12 50 -45l596 -1342q14 -31 1.5 -63.5t-42.5 -48.5l-154 -72q-31 -14 -66 -2t-49 45l-600 1337q-16 31 -4 64z" />
<glyph unicode="]" horiz-adv-x="745" d="M0 270q0 39 27 64q29 25 65 22l203 -14q8 0 12 4t4 10v883q0 14 -14 14l-207 9q-35 2 -59.5 27.5t-22.5 60.5l4 137q0 35 24.5 59.5t59.5 24.5l484 4q35 0 59 -25q27 -25 27 -61v-368v-327.5t-1 -331.5t-1 -378q0 -35 -25 -59q-24 -27 -61 -27l-492 4q-35 2 -59.5 26.5 t-24.5 59.5z" />
<glyph unicode="^" horiz-adv-x="724" d="M2 1200q-6 31 10 60l156 268q25 41 74 41h157q51 0 74 -41l158 -271q16 -27 11 -56.5t-28 -49.5l-49 -43q-23 -20 -55 -21q-39 0 -64 29l-114 127q-6 6 -13 6q-8 0 -10 -6l-96 -125q-23 -31 -55 -33q-35 -6 -64 17l-61 47q-25 20 -31 51z" />
<glyph unicode="_" horiz-adv-x="980" d="M0 92l2 133q2 35 26.5 59.5t59.5 24.5l737 8q37 0 62 -26q25 -25 24 -62l-2 -137q0 -35 -25.5 -59.5t-60.5 -24.5l-737 -2q-35 -2 -61 25q-25 25 -25 61z" />
<glyph unicode="`" horiz-adv-x="428" d="M2 1436q6 37 37 51l106 53q25 14 52.5 5t42.5 -36l112 -206q12 -23 7 -48.5t-25 -42.5l-47 -36q-23 -18 -50.5 -16.5t-46.5 24.5l-172 192q-23 23 -16 60z" />
<glyph unicode="a" horiz-adv-x="1265" d="M0 643q2 160 46 266.5t111.5 171t151.5 92t166 27.5t152.5 -21.5t111.5 -56.5q6 -6 15 -2q6 2 10 13v2q4 33 27.5 53t54.5 20l229 2q35 0 59.5 -24.5t26.5 -59.5l17 -1036q0 -33 -23 -61q-25 -25 -61 -25l-226 -2q-29 0 -52 17.5t-30 46.5l-12 47q-2 6 -10 10 q-4 2 -12 -2q-86 -66 -168 -95.5t-158 -29.5q-94 0 -173 45t-135 129t-88 204q-30 113 -30 251v18zM475 514q0 -43 23.5 -73.5t70.5 -30.5q33 0 76 18t96 61q6 2 7 11v166q0 8 -11 12q-20 6 -39.5 8t-35.5 2q-47 0 -82 -16.5t-58.5 -41t-35 -55t-11.5 -61.5z" />
<glyph unicode="b" horiz-adv-x="1189" d="M0 1470q0 37 25 62q26 22 54 22h7l264 -6q33 0 60 -26q22 -22 22 -54v-8l-12 -368q0 -10 8 -13q6 -6 14 0q117 70 244 70q84 0 162 -34t137 -103.5t95 -179.5q34 -104 34 -243v-16q-2 -162 -42 -271t-103.5 -176t-142 -95.5t-154.5 -28.5q-72 0 -134.5 19.5t-103.5 54.5 q-6 4 -14 2q-8 -4 -8 -10q-4 -31 -28 -51.5t-56 -20.5h-240q-35 0 -59.5 24.5t-24.5 59.5zM422 526q0 -10 8 -12q37 -20 68.5 -28.5t58.5 -8.5q66 0 97.5 40t31.5 89t-34 90t-99 41h-3q-54 0 -120 -32q-8 -4 -8 -13v-166z" />
<glyph unicode="c" horiz-adv-x="1064" d="M2 573q-1 22 -1 45q1 102 23 200q28 120 92 214t165.5 152.5t240.5 62.5h14q123 1 234 -65q117 -70 180 -217q6 -18 6 -34.5t-6 -31.5q-14 -33 -47 -47l-194 -78q-29 -10 -57.5 -2t-45.5 35q-37 57 -90 57q-51 0 -93 -60.5t-42 -182.5v-28.5t2 -31.5q10 -100 57 -152.5 t99 -52.5q25 0 47 12.5t39 41.5q16 27 42.5 38t55.5 1l199 -60q37 -14 51 -45q8 -18 8 -36q0 -16 -6 -32q-23 -55 -60.5 -107t-90 -95t-118 -71t-143.5 -32q-15 -1 -29 -1q-122 0 -214 46q-104 50 -172 135t-104 195.5t-42 226.5z" />
<glyph unicode="d" horiz-adv-x="1273" d="M0 573v15q0 140 37 244q39 110 103.5 179.5t148.5 103.5t176 34q141 0 272 -72q6 -4 15 0q6 6 6 13l-13 370v5q0 33 23 57q22 26 56 26h3l269 6h5q30 0 56 -22q25 -25 25 -62l-4 -1390q0 -35 -25 -59.5t-59 -24.5h-248q-35 0 -58.5 22.5t-25.5 57.5l-2 37 q-37 -41 -114 -69t-169 -28q-82 0 -166 27t-152.5 91.5t-112.5 172t-46 266.5zM469 608q0 -49 35 -90t106 -41q29 0 64 8.5t76 28.5q6 2 6 12v164q0 11 -8 15q-41 18 -74 25t-62 7q-72 0 -107.5 -40t-35.5 -89z" />
<glyph unicode="e" horiz-adv-x="1073" d="M-6 545q0 51 6 106q16 147 65.5 255t119 177.5t152.5 103.5q78 32 156 32h9q125 -2 216 -46.5t152.5 -118t92 -171t32.5 -203.5q0 -33 -21.5 -57.5t-55.5 -28.5q-61 -6 -130 -10t-130.5 -8.5t-109.5 -7.5t-69 -5q-10 0 -10 -12q-2 -10 -3 -27.5t-1 -38.5q0 -41 9 -79.5 t42 -49.5q16 -6 37.5 0t44.5 20.5t45.5 32t40.5 35.5q25 25 57 25q35 0 62 -27l133 -141q25 -25 25 -57q0 -29 -23 -56q-25 -31 -67 -66.5t-101 -65.5q-59 -28 -136 -46q-53 -12 -114 -13q-28 0 -57 3q-123 8 -212 54t-146.5 119t-84 168t-26.5 204zM489 819q0 -6 5 -10 q6 -6 10 -6l121 2q6 0 12 6q4 4 2 12q-4 14 -10 37t-16.5 41.5t-26 29.5t-33.5 3t-30.5 -22.5t-19.5 -31t-10.5 -33t-3.5 -28.5z" />
<glyph unicode="f" horiz-adv-x="753" d="M0 885q0 35 23.5 60.5t58.5 25.5h4q12 0 12 14q0 121 7.5 218t23.5 151q23 72 75 114.5t114.5 66.5t126 31t110.5 7q33 2 56.5 -18.5t29.5 -51.5l39 -225q1 -7 1 -13q0 -27 -15 -49q-17 -26 -50 -34q-33 -10 -65.5 -33t-48.5 -70q-4 -12 -6 -33.5t-2 -50.5q0 -2 4 -10 q8 -4 10 -4l55 2q33 0 62 -25q25 -25 24 -61l-2 -180q-2 -35 -25.5 -58.5t-58.5 -25.5h-26q-6 0 -11 -4q-4 -8 -4 -13q8 -74 17.5 -147.5t18.5 -141t18.5 -127t15.5 -102.5q1 -7 1 -14q0 -30 -22 -53q-22 -29 -55 -29h-8l-277 4q-33 0 -55 21.5t-26 54.5q-4 39 -9.5 96.5 t-10.5 127t-10 147t-9 159.5q0 16 -15 13h-8q-35 0 -59 24q-23 23 -27 60z" />
<glyph unicode="g" horiz-adv-x="1232" d="M-2 553q0 23 1 44t3 44q14 158 71.5 260.5t136.5 162.5t167 85t164 25q82 0 136 -20.5t52 -47.5l2 37q4 35 27.5 57.5t58.5 22.5h201q35 0 58.5 -21.5t27.5 -56.5q6 -80 13 -175.5t14.5 -199.5t12.5 -212.5t5 -215.5q0 -199 -23.5 -371.5t-89.5 -281.5 q-98 -127 -245.5 -189.5t-333.5 -62.5q-172 0 -365 51q-33 8 -51 36q-13 20 -13 45q0 8 1 17l53 232q6 41 43 59q20 10 40 10q16 0 32 -6q82 -31 178 -31q100 0 187 36t120 106q2 8 -4 16q-8 6 -16 4q-84 -20 -168 -20q-115 0 -206 40t-155.5 113.5t-99.5 177t-35 230.5z M420 567q0 -74 36 -100.5t83 -26.5q51 0 101.5 17.5t68.5 27.5q8 2 8 13l2 166q0 8 -10 12q-16 8 -58.5 19.5t-89.5 11.5q-53 0 -96 -28t-45 -112z" />
<glyph unicode="h" horiz-adv-x="1144" d="M0 1485q0 35 25 59q27 25 61 25l252 -6q35 -2 59 -27q25 -29 23 -61l-10 -369q0 -10 6 -12q8 -4 14 -2q86 35 156.5 51t130.5 16q100 0 164.5 -44t101.5 -117.5t51.5 -170t14.5 -200.5q0 -74 -5.5 -149t-12.5 -146.5t-14 -137t-11 -120.5q-4 -35 -28 -56.5t-58 -21.5 q-61 0 -118 2t-116 4q-39 0 -59 27q-25 25 -25 61q4 61 6 130t2 136q0 66 -4 126.5t-14 106.5t-28.5 75.5t-47.5 33.5h-7q-27 0 -45 -32q-20 -36 -31 -96t-15 -137t-4 -154q0 -53 1 -105l3 -99q0 -30 -23 -57q-24 -24 -58 -24h-3h-240q-35 0 -59.5 24.5t-26.5 59.5z" />
<glyph unicode="i" d="M-20 1493q0 45 19 85t53 69.5t79 47t98 17.5q51 0 96.5 -17.5t79 -47t53 -69.5t19.5 -85q0 -47 -19.5 -87t-53 -69.5t-78.5 -47t-97 -17.5q-53 0 -98 17.5t-79 47t-53 69.5t-19 87zM0 94q0 -35 25 -59q23 -27 59 -27l299 -2h8q28 0 53 25t25 59l-20 1026q0 35 -25 58.5 t-59 23.5h-267q-35 0 -59.5 -24.5t-24.5 -59.5z" />
<glyph unicode="j" horiz-adv-x="561" d="M-283 -197l43 -292q4 -35 29.5 -55.5t58.5 -18.5q147 10 264 75.5t214 223.5q43 70 69.5 190.5t42 265t20.5 298t5 288.5q0 109 -2 196t-4 144q-2 35 -25.5 57.5t-58.5 22.5l-254 2q-35 0 -60 -24q-25 -25 -25 -52q0 -5 1 -10q4 -104 10 -229t6 -256q0 -123 -10 -241 t-41 -217t-85 -172t-142 -103q-29 -10 -44.5 -36t-11.5 -57zM-12 1493q0 45 19.5 85t53 69.5t79 47t96.5 17.5t97 -17.5t79.5 -47t53 -69.5t19.5 -85q0 -47 -19.5 -87t-53 -69.5t-79.5 -47t-97 -17.5t-96.5 17.5t-79 47t-53 69.5t-19.5 87z" />
<glyph unicode="k" horiz-adv-x="1173" d="M0 1464q0 35 22.5 58.5t57.5 27.5l227 13q39 0 62 -23q27 -23 28 -59l19 -568q0 -12 12 -12q10 -4 14 6l152 271q21 43 66 43h8l270 -2q51 0 74 -45q11 -21 11 -41q0 -22 -13 -43l-283 -451q-4 -10 2 -16l367 -471q20 -24 20 -51q0 -17 -8 -35q-23 -45 -74 -50l-274 -16 h-5q-36 0 -63 29l-229 262q-8 6 -17 4q-8 -4 -8 -14l6 -193v-5q0 -30 -22 -56q-29 -25 -62 -25l-262 2q-35 2 -59.5 25.5t-24.5 58.5z" />
<glyph unicode="l" horiz-adv-x="524" d="M0 1464q0 35 22.5 58.5t57.5 27.5l227 13q39 0 62 -23q27 -23 28 -59l47 -1393v-5q0 -30 -22 -56q-29 -25 -62 -25l-262 2q-35 2 -59.5 25.5t-24.5 58.5z" />
<glyph unicode="m" horiz-adv-x="1730" d="M0 1126q0 35 24.5 59.5t59.5 24.5l203 2q37 0 61 -24q20 -20 25 -51q0 -8 8 -13q6 -2 14 2q59 51 126 79t132 28q72 0 135.5 -35t104.5 -111q2 -4 10 -8q4 0 12 4q68 72 153 111t171 39q104 0 196.5 -62.5t141.5 -197.5q43 -121 59.5 -269.5t16.5 -293.5 q0 -94 -5.5 -180.5t-13.5 -153.5q-4 -35 -27.5 -55.5t-58.5 -20.5l-239 6q-37 4 -60 27q-22 28 -22 58l4 103q2 56 2 119q0 76 -4 154t-14.5 143.5t-29 110.5t-46.5 55q-25 8 -42.5 -20.5t-28.5 -83t-18.5 -127t-11.5 -152.5t-6 -159.5t-2 -147.5q0 -33 -26 -59 q-25 -25 -60 -25l-235 6q-37 0 -62 27q-22 22 -22 58l4 103q2 56 2 119q0 76 -4 153t-14.5 142.5t-29 110.5t-46.5 55q-25 8 -43.5 -17.5t-30.5 -74.5t-20.5 -115.5t-12.5 -138.5t-5 -143.5t-1 -130.5v-68q0 -37 -25 -61q-25 -25 -59 -25h-248h-5q-33 0 -55 22 q-24 24 -24 60z" />
<glyph unicode="n" horiz-adv-x="1148" d="M0 1126q0 35 24.5 59.5t59.5 24.5l203 2q37 0 61 -24q18 -18 23 -45q4 -10 10 -13q6 -4 14 5q43 41 127 69q74 25 153 25h23q111 -4 181.5 -67.5t110.5 -164t55.5 -225.5t15.5 -254q0 -125 -9.5 -239.5t-19.5 -202.5q-4 -35 -28.5 -55.5t-57.5 -20.5l-239 6q-37 4 -60 27 q-22 24 -22 58l4 103q2 56 2 119q0 76 -4 154t-14.5 143.5t-29 110.5t-46.5 55q-25 8 -43.5 -17.5t-30.5 -74.5t-20.5 -115.5t-12.5 -138.5t-5 -143.5t-1 -130.5v-68q0 -37 -25 -61q-25 -25 -59 -25h-248h-5q-33 0 -55 22q-24 24 -24 60z" />
<glyph unicode="o" horiz-adv-x="1228" d="M0 621q0 162 48 280.5t128 196.5t182.5 116.5t208.5 38.5q111 0 216.5 -39.5t189.5 -118.5t135 -195.5t51 -270.5q0 -133 -49 -252t-132 -208t-190.5 -140.5t-224.5 -51.5t-219 50.5t-179 137.5t-121 204.5t-44 251.5zM395 588q0 -47 14.5 -87t39 -71t58.5 -48t71 -17 q39 0 72.5 17t58 48t39 71t14.5 87q0 45 -14.5 86t-39 71.5t-58 48t-72.5 17.5q-37 0 -71 -17.5t-58.5 -48t-39 -71.5t-14.5 -86z" />
<glyph unicode="p" horiz-adv-x="1277" d="M0 -475l8 1612q0 35 24.5 59.5t59.5 24.5h244q35 0 58.5 -22.5t25.5 -55.5v-8q0 -8 8 -13q8 -4 14 2q43 35 113 55.5t150 20.5q82 0 165.5 -27.5t152.5 -92t113 -171t46 -266.5v-14q0 -151 -41 -267q-43 -120 -116 -200t-165 -121t-190 -41q-59 0 -115.5 14.5 t-110.5 42.5q-8 6 -14 0q-8 -4 -8 -12l14 -512q0 -35 -23.5 -59.5t-58.5 -26.5l-268 -6h-5q-30 0 -56 22q-25 27 -25 62zM426 444q0 -8 8 -12q41 -18 74 -25.5t61 -7.5q72 0 109 40t37 89t-36 90t-108 41q-57 0 -137 -36q-8 -6 -8 -15v-164z" />
<glyph unicode="q" horiz-adv-x="1206" d="M0 573v34t2 36q12 156 58 262.5t113 170t144.5 91t153.5 27.5q80 0 148.5 -24.5t103.5 -65.5l4 39q2 33 25.5 55.5t58.5 22.5h233q35 0 59.5 -23.5t24.5 -58.5v-1604q0 -35 -22.5 -59.5t-56.5 -28.5l-252 -12q-5 -1 -9 -1q-30 0 -55 23q-24 24 -24 57v7l14 551 q-66 -51 -135.5 -75t-134.5 -24q-90 0 -172 42t-144.5 121t-99.5 189.5t-37 247.5zM418 571q0 -74 33.5 -100.5t80.5 -26.5q51 0 102 17.5t71 27.5q8 4 8 13v164q0 10 -11 14q-16 6 -58 18.5t-89 12.5q-53 0 -95 -29t-42 -111z" />
<glyph unicode="r" horiz-adv-x="1028" d="M0 84v1036q0 33 21.5 56.5t54.5 27.5l219 21q5 1 11 1q32 0 54 -22q27 -31 27 -63v-29q0 -10 10 -14q6 -4 15 4q49 59 103 83.5t110 24.5q88 0 173 -51t146 -117q23 -23 24 -52t-16 -54l-143 -201q-18 -29 -50 -35t-61 11q-23 14 -51.5 23t-58.5 9q-27 0 -53.5 -8 t-53.5 -30q-12 -12 -21 -40t-14.5 -67t-7.5 -87t-2 -99q0 -88 4 -174t9 -146q1 -5 1 -9q0 -30 -24 -54q-27 -27 -61 -27l-281 -2q-35 0 -59 25q-25 25 -25 59z" />
<glyph unicode="s" horiz-adv-x="921" d="M0 893q0 35 6 76q10 68 48 113.5t95.5 73.5t129 40t149.5 12q98 0 193.5 -16t171.5 -41q33 -10 49 -43q9 -19 9 -38q0 -14 -5 -28l-55 -153q-12 -33 -41 -48.5t-60 -4.5q-18 4 -38.5 8t-41.5 4q-31 0 -55.5 -11.5t-32.5 -41.5q-6 -27 17.5 -47.5t61.5 -42t84 -49 t84 -67.5q37 -41 59 -97q16 -41 16 -95q0 -20 -2 -43q-10 -100 -64.5 -171.5t-134.5 -118t-178 -68t-197 -21.5q-23 0 -46 1t-46 4q-31 4 -51.5 25.5t-24.5 49.5l-14 168q-1 6 -1 11q-1 28 17 50q20 26 56 29q27 4 53.5 12.5t44.5 24.5t26 42q4 12 4 27q0 17 -5 38 q-16 57 -62.5 96t-94.5 83t-86 102.5t-38 154.5z" />
<glyph unicode="t" horiz-adv-x="792" d="M-33 883v127q0 25 13 43l233 391q25 41 72 41l125 4q33 0 63 -27q23 -27 23 -58v-5q-2 -35 -4.5 -79t-6.5 -95q0 -4 4 -13q4 -4 11 -4h75h5q30 0 55 -24q25 -21 25 -50q0 -5 -1 -10l-4 -233q0 -35 -23.5 -58.5t-58.5 -25.5h-94q-14 0 -14 -14q-2 -45 -3 -83t-1 -73 t1 -60.5t3 -41.5q6 -63 47 -79q33 -13 68 -13q9 0 18 1q7 1 13 1q31 0 55 -23q27 -23 26 -55v-11l-16 -280q-2 -33 -23.5 -55.5t-56.5 -24.5q-16 -2 -34.5 -2h-41.5q-49 0 -106.5 4t-111.5 17.5t-101 36t-76 59.5q-18 23 -30.5 72.5t-19.5 119.5t-10.5 156t-3.5 178v81t2 81 h-10q-35 0 -59 24q-27 25 -27 60z" />
<glyph unicode="u" horiz-adv-x="1249" d="M0 829q0 82 4 160t10 150q4 35 26.5 56.5t57.5 21.5h293q31 0 62 -27q22 -24 22 -59l-4 -102q-2 -56 -2 -120q0 -76 4 -152.5t14.5 -142t29 -110.5t46.5 -55q25 -10 43.5 16.5t30.5 74.5t20.5 114.5t12.5 138t5 143.5t1 131v68q0 37 24 61q27 25 64 25l293 -13 q35 -2 57.5 -25.5t24.5 -58.5l6 -1026q0 -35 -24.5 -59.5t-59.5 -24.5l-248 -2q-37 0 -61 25q-20 23 -23 47q0 2 -1 2t-1 2q0 10 -8 12q-6 4 -14 -4q-45 -39 -116 -65.5t-151 -26.5q-68 0 -136.5 25.5t-126.5 87t-101 165t-60 259.5q-8 72 -11 144.5t-3 143.5z" />
<glyph unicode="v" horiz-adv-x="1136" d="M2 1104q-2 9 -2 18q0 27 18 54q20 29 64 32l272 6q31 0 55.5 -19t28.5 -52l86 -537q4 -12 15 -12q10 0 14 12l113 537q6 31 29.5 49t52.5 18l251 -2q41 0 66 -32q18 -24 18 -52q0 -10 -2 -20l-260 -1041q-8 -29 -30.5 -46t-51.5 -17l-407 2q-29 0 -51.5 18.5t-30.5 47.5z " />
<glyph unicode="w" horiz-adv-x="1488" d="M0 1114v5q0 33 23 57q20 25 59 28l256 8h6q32 0 54 -20q24 -22 26 -57l22 -308q0 -12 13 -12q10 -4 14 10l84 305q8 29 32.5 46.5t55.5 15.5l109 -8q59 -4 75 -64l91 -350q4 -10 14 -10t14 12l58 377q6 33 30.5 52.5t55.5 19.5l258 -11q37 0 61 -28q20 -25 20 -53 q0 -7 -1 -13l-134 -1034q-4 -31 -26.5 -51.5t-55.5 -22.5l-346 -6q-31 0 -53 17.5t-31 46.5l-96 389q-4 12 -14 12t-15 -10l-112 -398q-8 -29 -31.5 -46t-52.5 -15l-324 6q-35 2 -57.5 24.5t-24.5 55.5z" />
<glyph unicode="x" horiz-adv-x="1120" d="M10 1085q-11 20 -11 39q0 21 13 43q25 41 70 41l256 6q27 2 48.5 -12t31.5 -39l88 -217q4 -8 12 -8q10 0 14 8l97 213q10 23 31.5 37t48.5 12l278 -12q47 0 70 -43q12 -20 11.5 -40.5t-11.5 -41.5l-244 -440q-4 -6 0 -13l240 -493q11 -19 11 -38q0 -22 -15 -44 q-27 -39 -72 -39l-305 2q-29 0 -50.5 16.5t-29.5 43.5l-47 157q0 10 -13 10q-10 0 -12 -8l-88 -170q-25 -47 -76 -47l-256 2q-43 0 -69 39q-14 22 -14 45q0 17 8 35l225 487q0 8 -2 13z" />
<glyph unicode="y" horiz-adv-x="1236" d="M-35 -403l51 272q6 39 43 57q20 10 40 10q16 0 32 -6q41 -16 86 -24t88 -8q100 0 180 42t99 126q4 10 -6 14q-6 6 -15 2q-96 -49 -182 -49q-96 0 -175 49t-134 123q-18 27 -31.5 81t-21 124.5t-10.5 151.5t-3 165q0 119 4 225t8 174q2 35 26 57.5t58 22.5l287 -2 q35 0 62 -26q23 -24 23 -53q0 -6 -1 -11q-4 -53 -8 -130t-4 -157q0 -72 4 -139t16.5 -119.5t33 -84t50.5 -29.5q33 0 54.5 35.5t34 92t16.5 127t4 142.5t-3 138.5t-7 115.5q0 39 22 63q25 27 62 27l299 6q35 0 59 -22.5t27 -57.5q4 -66 7 -169t3 -228q0 -131 -6.5 -273.5 t-21.5 -276.5t-43 -247.5t-73 -185.5q-98 -162 -247.5 -231.5t-335.5 -69.5q-92 0 -189.5 14.5t-199.5 42.5q-33 10 -51 37q-13 20 -13 45q0 8 2 17z" />
<glyph unicode="z" horiz-adv-x="944" d="M0 1108v5q0 30 20 58q27 27 62 27l680 19q37 0 61 -23q25 -25 25 -59l4 -211q0 -23 -12 -43l-283 -494q-4 -8 0 -14q6 -6 12 -6h207h5q32 0 57 -25t24 -61l-6 -203q-2 -35 -26.5 -58.5t-59.5 -23.5l-672 6q-35 0 -59 27q-23 23 -23 59l2 168q4 29 17 47l358 522q2 8 0 17 q-4 6 -14 6l-273 -14q-35 -4 -59 18t-29 57z" />
<glyph unicode="{" horiz-adv-x="661" d="M0 715v176q0 6 6 10q57 49 87 99.5t47.5 104.5t31.5 112.5t43 119.5q37 82 74 141.5t65 96.5q20 25 49 32t58 -8l90 -45q33 -14 45 -53q11 -38 -12 -69q-43 -66 -64.5 -146t-38 -161t-36 -157.5t-58.5 -138.5q-4 -10 0 -16q41 -61 60.5 -140t36 -162t38 -163t68.5 -145 q20 -31 14 -66q-10 -37 -39 -55l-100 -66q-29 -18 -61.5 -12t-53.5 33q-29 37 -64.5 94t-70.5 135q-29 61 -43 119.5t-31.5 113t-47.5 105.5t-87 98q-6 2 -6 13z" />
<glyph unicode="|" horiz-adv-x="448" d="M0 1763q0 33 25 62q27 25 63 24l188 -4q35 -2 59.5 -26.5t24.5 -59.5v-1929q0 -37 -24 -61q-29 -25 -62 -25l-184 4q-35 0 -59.5 25.5t-24.5 60.5z" />
<glyph unicode="}" horiz-adv-x="665" d="M2 137q-6 35 14 66q45 66 66.5 145.5t38 162.5t36 162t60.5 140q6 6 0 16q-41 61 -59.5 138t-35 158t-38 161t-64.5 146q-20 29 -10 69q10 39 45 53l88 45q29 14 58.5 7t48.5 -31q29 -37 65.5 -96.5t73.5 -141.5q29 -61 43 -119.5t32.5 -112.5t47.5 -104.5t88 -99.5 q4 -2 4 -10v-176q0 -10 -4 -13q-59 -47 -88 -98t-47.5 -105.5t-32.5 -112.5t-43 -120q-35 -78 -70.5 -135t-62.5 -94q-23 -27 -55.5 -33t-61.5 12l-100 66q-31 18 -37 55z" />
<glyph unicode="~" horiz-adv-x="841" d="M1 704q5 30 28 50q66 59 120 82.5t97 23.5q47 0 86 -20.5t72.5 -45t66.5 -45t68 -20.5q31 0 63 21q29 18 60.5 13t54.5 -34l47 -63q18 -25 16 -56.5t-24 -54.5q-55 -59 -104.5 -80.5t-94.5 -21.5q-47 0 -89 17t-83 38.5t-80 40t-80 18.5q-35 0 -65 -14q-31 -14 -61.5 -5 t-49.5 38l-37 59q-16 29 -11 59z" />
<glyph unicode="&#xa1;" d="M-2 1337q0 47 19.5 88t52 72t76.5 48.5t94 17.5q51 0 95 -17.5t76.5 -48.5t52 -72t19.5 -88t-19.5 -88t-52 -71.5t-76.5 -49t-95 -18.5q-49 0 -93.5 18.5t-77 49t-52 71.5t-19.5 88zM0 78q-4 -35 23 -64q27 -27 63 -26h301q35 0 62 26q24 27 24 64l-29 895 q-2 35 -26.5 58.5t-59.5 23.5h-225q-35 0 -59.5 -23.5t-26.5 -58.5z" />
<glyph unicode="&#xa8;" horiz-adv-x="606" d="M2 1532q0 47 33 80t80 33t78.5 -33t31.5 -80t-31.5 -80t-78.5 -33t-80 33t-33 80zM303 1532q0 -47 33 -80t80 -33t79.5 33t32.5 80t-32.5 80t-79.5 33t-80 -33t-33 -80z" />
<glyph unicode="&#xad;" horiz-adv-x="792" d="M0 680l2 147q2 35 26.5 59.5t59.5 26.5l545 5q37 0 61 -25q25 -29 25 -64l-2 -153q-2 -35 -26.5 -59.5t-59.5 -24.5h-545q-37 0 -61 26q-25 25 -25 62z" />
<glyph unicode="&#xb4;" horiz-adv-x="430" d="M1.5 1355.5q-5.5 24.5 6.5 47.5l111 203q14 27 40.5 36t51.5 -6l104 -51q31 -14 37 -51q7 -36 -16 -59l-170 -189q-16 -23 -44 -24.5t-50 16.5l-47 37q-18 16 -23.5 40.5z" />
<glyph unicode="&#xb8;" horiz-adv-x="569" d="M-8 -401q8 14 26 18l107 25q14 4 28.5 -1.5t22.5 -15.5q12 -16 32.5 -19t41 4t36 26.5t19.5 50.5q6 43 -6 69.5t-31.5 38.5t-42 9t-39.5 -21q-20 -23 -55 -12l-102 30q-6 4 -10.5 6.5t-8.5 6.5h-2q-8 6 -8 14l2 274q0 8 8 15q8 6 23 6h157q12 0 23 -6q8 -6 8 -17l-4 -141 h14q74 -2 127.5 -25.5t87 -61.5t49 -85t11.5 -96q-2 -47 -21.5 -91t-56.5 -78t-91 -53.5t-128 -17.5q-84 4 -139.5 41t-77.5 80q-8 14 0 27z" />
<glyph unicode="&#xbf;" horiz-adv-x="1052" d="M4 430q-6 -49 5 -111.5t50 -123t112 -110.5t194 -73q29 -4 56.5 -7t55.5 -3q68 0 138.5 17.5t136 58.5t126 107.5t109.5 164.5q14 29 6 61t-37 50l-137 92q-31 18 -65 12q-35 -10 -56 -39q-33 -53 -73.5 -75.5t-77.5 -22.5q-41 0 -68.5 22.5t-25.5 63.5q2 53 35.5 98 t75.5 93.5t84 107.5t61 141q10 41 -17 74q-29 31 -67 31h-209q-61 0 -82 -60q-18 -63 -68.5 -118.5t-105 -118t-100.5 -141t-56 -191.5zM285 1343q0 47 19.5 88.5t52 72t76.5 48t93 17.5t93.5 -17.5t77 -48t52 -71.5t19.5 -89q0 -47 -19.5 -88t-52 -71.5t-77 -48 t-93.5 -17.5t-93 17.5t-76.5 48t-52 71.5t-19.5 88z" />
<glyph unicode="&#xc0;" horiz-adv-x="1409" d="M2 125l348 1358q8 29 30.5 46t51.5 17l514 6q31 0 54.5 -18t29.5 -47l328 -1362q10 -39 -17 -72t-65 -33h-361q-31 0 -54 19.5t-30 50.5l-14 78q-4 12 -14 12l-236 2q-14 0 -14 -12l-14 -84q-4 -31 -28 -51.5t-56 -20.5l-371 4q-43 4 -66 35q-24 33 -16 72zM522 1898 q6 37 37 52l107 53q25 14 52 5t42 -36l112 -207q12 -23 7 -48t-25 -42l-47 -37q-23 -18 -50.5 -16t-45.5 25l-172 192q-23 23 -17 59zM618 623q0 -8 5 -13q4 -4 10 -4l84 2q8 0 12 4q2 5 2 13l-47 247q-4 12 -14 13q-12 -4 -15 -13z" />
<glyph unicode="&#xc1;" horiz-adv-x="1409" d="M2 125l348 1358q8 29 30.5 46t51.5 17l514 6q31 0 54.5 -18t29.5 -47l328 -1362q10 -39 -17 -72t-65 -33h-361q-31 0 -54 19.5t-30 50.5l-14 78q-4 12 -14 12l-236 2q-14 0 -14 -12l-14 -84q-4 -31 -28 -51.5t-56 -20.5l-371 4q-43 4 -66 35q-24 33 -16 72zM531.5 1818.5 q-5.5 24.5 7.5 47.5l110 202q14 27 41 36.5t51 -5.5l105 -51q31 -14 37 -51t-17 -60l-170 -188q-16 -23 -43.5 -25t-50.5 17l-47 37q-18 16 -23.5 40.5zM618 623q0 -8 5 -13q4 -4 10 -4l84 2q8 0 12 4q2 5 2 13l-47 247q-4 12 -14 13q-12 -4 -15 -13z" />
<glyph unicode="&#xc2;" horiz-adv-x="1409" d="M2 125l348 1358q8 29 30.5 46t51.5 17l514 6q31 0 54.5 -18t29.5 -47l328 -1362q10 -39 -17 -72t-65 -33h-361q-31 0 -54 19.5t-30 50.5l-14 78q-4 12 -14 12l-236 2q-14 0 -14 -12l-14 -84q-4 -31 -28 -51.5t-56 -20.5l-371 4q-43 4 -66 35q-24 33 -16 72zM466 1756 q-5 24 7 44l117 201q18 31 55 31h119q37 0 55 -31l117 -203q12 -18 9 -40.5t-21 -39.5l-37 -30q-18 -18 -45 -16.5t-43 22.5l-86 94q-4 2 -5 3t-6 1q-2 0 -6 -4l-71 -94q-10 -10 -19.5 -16.5t-23.5 -8.5q-27 -2 -47 12l-46 37q-18 14 -23 38zM618 623q0 -8 5 -13q4 -4 10 -4 l84 2q8 0 12 4q2 5 2 13l-47 247q-4 12 -14 13q-12 -4 -15 -13z" />
<glyph unicode="&#xc3;" horiz-adv-x="1409" d="M2 125l348 1358q8 29 30.5 46t51.5 17l514 6q31 0 54.5 -18t29.5 -47l328 -1362q10 -39 -17 -72t-65 -33h-361q-31 0 -54 19.5t-30 50.5l-14 78q-4 12 -14 12l-236 2q-14 0 -14 -12l-14 -84q-4 -31 -28 -51.5t-56 -20.5l-371 4q-43 4 -66 35q-24 33 -16 72zM405 1886.5 q3 22.5 21 38.5q51 47 91 64.5t75 17.5q45 0 79 -22.5t64.5 -44t62 -33t68.5 13.5q23 16 47.5 11t40.5 -25l37 -49q14 -20 12 -44t-18 -42q-43 -45 -81 -61.5t-73 -16.5q-43 0 -80.5 18.5t-74.5 37.5t-74 28.5t-76 -9.5q-23 -10 -46 -2.5t-38 29.5l-28 45q-12 23 -9 45.5z M618 623q0 -8 5 -13q4 -4 10 -4l84 2q8 0 12 4q2 5 2 13l-47 247q-4 12 -14 13q-12 -4 -15 -13z" />
<glyph unicode="&#xc4;" horiz-adv-x="1409" d="M2 125l348 1358q8 29 30.5 46t51.5 17l514 6q31 0 54.5 -18t29.5 -47l328 -1362q10 -39 -17 -72t-65 -33h-361q-31 0 -54 19.5t-30 50.5l-14 78q-4 12 -14 12l-236 2q-14 0 -14 -12l-14 -84q-4 -31 -28 -51.5t-56 -20.5l-371 4q-43 4 -66 35q-24 33 -16 72zM440 1837 q0 47 33 80t80 33t79 -33t32 -80t-32 -80t-79 -33t-80 33t-33 80zM618 623q0 -8 5 -13q4 -4 10 -4l84 2q8 0 12 4q2 5 2 13l-47 247q-4 12 -14 13q-12 -4 -15 -13zM741 1837q0 -47 33 -80t80 -33t80 33t33 80t-33 80t-80 33t-80 -33t-33 -80z" />
<glyph unicode="&#xc5;" horiz-adv-x="1409" d="M2 125l348 1358q8 29 30.5 46t51.5 17l514 6q31 0 54.5 -18t29.5 -47l328 -1362q10 -39 -17 -72t-65 -33h-361q-31 0 -54 19.5t-30 50.5l-14 78q-4 12 -14 12l-236 2q-14 0 -14 -12l-14 -84q-4 -31 -28 -51.5t-56 -20.5l-371 4q-43 4 -66 35q-24 33 -16 72zM471 1886 q0 45 18.5 86t50 72t73.5 48t89 17q49 0 91.5 -17t74 -48t50 -72t18.5 -86q0 -47 -18.5 -87t-50 -70.5t-73.5 -48t-92 -17.5q-47 0 -89 17.5t-73.5 48t-50 70.5t-18.5 87zM618 623q0 -8 5 -13q4 -4 10 -4l84 2q8 0 12 4q2 5 2 13l-47 247q-4 12 -14 13q-12 -4 -15 -13z M633 1886q0 -29 20.5 -50t48.5 -21q31 0 51.5 21.5t20.5 49.5q0 29 -20.5 50.5t-51.5 21.5q-29 0 -49 -21.5t-20 -50.5z" />
<glyph unicode="&#xc6;" horiz-adv-x="1884" d="M2 125l410 1354q8 29 30.5 46t51.5 17l1237 43q37 0 61 -24q27 -27 27 -60v-244q0 -35 -23.5 -59t-58.5 -27l-340 -18q-14 0 -15 -14v-95q0 -14 15 -14h125q37 0 61 -26q25 -25 25 -62l-15 -227q-2 -35 -25.5 -57.5t-58.5 -22.5h-141q-14 0 -14 -14l-4 -109q0 -2 4 -10 q8 -4 12 -4l363 12q37 0 61 -25q27 -25 27 -61l-9 -318q0 -35 -25.5 -59t-60.5 -24h-870q-31 0 -54.5 19t-29.5 50l-2 78q-4 12 -14 12h-185q-14 0 -14 -12l-14 -84q-4 -31 -28 -51.5t-56 -20.5l-371 4q-43 4 -66 35q-24 33 -16 72zM618 623q0 -8 5 -13q4 -4 10 -4l84 2 q8 0 12 4q2 5 2 13l8 315q-4 12 -14 12q-12 -4 -14 -12z" />
<glyph unicode="&#xc7;" horiz-adv-x="1308" d="M0 786.5v30.5q0 150 40 291t122 251.5t207 178.5t293 72q84 2 165.5 -20.5t154.5 -69.5t131 -120t97 -173q12 -33 -2 -64t-47 -45l-280 -114q-31 -12 -60.5 -2t-46.5 38q-49 86 -121 86q-33 0 -63.5 -20.5t-55 -59t-40 -98t-15.5 -135.5q0 -16 1 -34.5t3 -37.5 q6 -63 25.5 -111t47.5 -81t60.5 -50.5t65.5 -17.5q35 0 64.5 19.5t50.5 60.5q14 29 42.5 42t57.5 3l289 -90q35 -8 51 -43q16 -31 4 -67q-25 -68 -69 -135.5t-105 -124t-140 -95.5t-173 -51v-41h14q74 -2 127 -25.5t87 -61.5t49.5 -85t10.5 -96q-2 -47 -21.5 -91t-56 -78 t-91 -53.5t-128.5 -17.5q-84 4 -139 41t-78 80q-8 14 0 27q8 14 27 18l107 25q14 4 28.5 -1.5t22.5 -15.5q12 -16 32.5 -19t41 4t36 26.5t19.5 50.5q6 43 -6.5 69.5t-32 38.5t-42 9t-38.5 -21q-20 -23 -55 -12l-103 30q-6 4 -10 6.5t-8 6.5h-2q-8 6 -8 14v180 q-133 27 -230.5 99.5t-163 174t-100.5 224.5t-41 250q-2 16 -2 30.5z" />
<glyph unicode="&#xc8;" horiz-adv-x="1124" d="M0 94l4 1370q0 35 23.5 59.5t58.5 24.5l854 17q37 0 61 -25q27 -27 27 -59v-244q0 -35 -23.5 -59.5t-58.5 -26.5l-340 -18q-14 0 -14 -15v-94q0 -14 14 -14h125q37 0 62 -27q25 -25 24 -61l-14 -228q-2 -35 -25.5 -57.5t-58.5 -22.5h-141q-14 0 -15 -14l-4 -108 q0 -2 4 -11q8 -4 12 -4l363 12q37 0 61 -24q27 -25 27 -62l-8 -317q0 -35 -25.5 -59.5t-60.5 -24.5l-848 6q-35 0 -59.5 25.5t-24.5 60.5zM381 1898q6 37 37 52l106 53q25 14 52.5 5t41.5 -36l113 -207q12 -23 7 -48t-25 -42l-47 -37q-23 -18 -50.5 -16t-46.5 25l-172 192 q-23 23 -16 59z" />
<glyph unicode="&#xc9;" horiz-adv-x="1124" d="M0 94q0 -35 24.5 -60.5t59.5 -25.5l848 -6q35 0 60.5 24.5t25.5 59.5l8 317q0 37 -27 62q-25 25 -61 24l-363 -12q-4 0 -12 4q-4 8 -4 11l4 108q0 14 15 14h141q35 0 58.5 22.5t25.5 57.5l14 228q0 37 -24 61q-25 27 -62 27h-125q-14 0 -14 14v94q0 14 14 15l340 18 q35 2 58.5 26.5t23.5 59.5v244q0 33 -27 59q-25 25 -61 25l-854 -17q-35 0 -58.5 -24.5t-23.5 -59.5zM388.5 1818.5q-5.5 24.5 6.5 47.5l111 202q14 27 40.5 36.5t51.5 -5.5l104 -51q31 -14 37 -51q7 -37 -16 -60l-170 -188q-16 -23 -44 -25t-50 17l-47 37 q-18 16 -23.5 40.5z" />
<glyph unicode="&#xca;" horiz-adv-x="1124" d="M0 94q0 -35 24.5 -60.5t59.5 -25.5l848 -6q35 0 60.5 24.5t25.5 59.5l8 317q0 37 -27 62q-25 25 -61 24l-363 -12q-4 0 -12 4q-4 8 -4 11l4 108q0 14 15 14h141q35 0 58.5 22.5t25.5 57.5l14 228q0 37 -24 61q-25 27 -62 27h-125q-14 0 -14 14v94q0 14 14 15l340 18 q35 2 58.5 26.5t23.5 59.5v244q0 33 -27 59q-25 25 -61 25l-854 -17q-35 0 -58.5 -24.5t-23.5 -59.5zM323 1756q-5 24 7 44l116 201q18 31 56 31h119q37 0 55 -31l117 -203q12 -18 9 -40.5t-22 -39.5l-37 -30q-18 -18 -44.5 -16.5t-43.5 22.5l-86 94q-4 2 -5 3t-5 1 q-2 0 -6 -4l-72 -94q-10 -10 -19 -16.5t-24 -8.5q-27 -2 -47 12l-45 37q-18 14 -23 38z" />
<glyph unicode="&#xcb;" horiz-adv-x="1124" d="M0 94q0 -35 24.5 -60.5t59.5 -25.5l848 -6q35 0 60.5 24.5t25.5 59.5l8 317q0 37 -27 62q-25 25 -61 24l-363 -12q-4 0 -12 4q-4 8 -4 11l4 108q0 14 15 14h141q35 0 58.5 22.5t25.5 57.5l14 228q0 37 -24 61q-25 27 -62 27h-125q-14 0 -14 14v94q0 14 14 15l340 18 q35 2 58.5 26.5t23.5 59.5v244q0 33 -27 59q-25 25 -61 25l-854 -17q-35 0 -58.5 -24.5t-23.5 -59.5zM252 1837q0 47 32.5 80t80.5 33q47 0 78.5 -33t31.5 -80t-31.5 -80t-78.5 -33t-80 33t-33 80zM553 1837q0 -47 32.5 -80t80.5 -33q47 0 79.5 33t32.5 80t-32.5 80 t-79.5 33t-80 -33t-33 -80z" />
<glyph unicode="&#xcc;" horiz-adv-x="688" d="M0 109l4 1380q0 37 25 61q25 25 59 25l422 -4q37 0 61 -25q25 -25 23 -61l-25 -1379q-2 -35 -26.5 -59t-59.5 -24h-399q-33 0 -59 26q-25 25 -25 60zM162 1898q6 37 37 52l106 53q25 14 52.5 5t41.5 -36l113 -207q12 -23 7 -48t-25 -42l-48 -37q-23 -18 -50 -16t-46 25 l-172 192q-23 23 -16 59z" />
<glyph unicode="&#xcd;" horiz-adv-x="688" d="M0 109q0 -35 25 -60q27 -27 59 -26h399q35 0 59.5 24.5t26.5 58.5l25 1379q2 37 -23 61q-25 25 -61 25l-422 4q-35 0 -59 -25q-25 -24 -25 -61zM171.5 1818.5q-5.5 24.5 6.5 47.5l111 202q14 27 40.5 36.5t51.5 -5.5l104 -51q31 -14 37 -51q7 -37 -16 -60l-170 -188 q-16 -23 -44 -25t-50 17l-47 37q-18 16 -23.5 40.5z" />
<glyph unicode="&#xce;" horiz-adv-x="688" d="M0 109q0 -35 25 -60q27 -27 59 -26h399q35 0 59.5 24.5t26.5 58.5l25 1379q2 37 -23 61q-25 25 -61 25l-422 4q-35 0 -59 -25q-25 -24 -25 -61zM61 1756q-5 24 7 44l116 201q18 31 56 31h118q37 0 56 -31l116 -203q12 -18 9.5 -40.5t-21.5 -39.5l-37 -30 q-18 -18 -44.5 -16.5t-43.5 22.5l-86 94q-4 2 -5 3t-5 1q-2 0 -6 -4l-72 -94q-10 -10 -19.5 -16.5t-23.5 -8.5q-27 -2 -47 12l-45 37q-18 14 -23 38z" />
<glyph unicode="&#xcf;" horiz-adv-x="688" d="M0 109q0 -35 25 -60q27 -27 59 -26h399q35 0 59.5 24.5t26.5 58.5l25 1379q2 37 -23 61q-25 25 -61 25l-422 4q-35 0 -59 -25q-25 -24 -25 -61zM80 1837q0 47 32.5 80t80.5 33q47 0 78.5 -33t31.5 -80t-31.5 -80t-78.5 -33t-80 33t-33 80zM381 1837q0 -47 32.5 -80 t80.5 -33q47 0 79.5 33t32.5 80t-32.5 80t-79.5 33t-80 -33t-33 -80z" />
<glyph unicode="&#xd0;" horiz-adv-x="1169" d="M-88 680l2 147q2 35 26.5 59.5t59.5 26.5h2l2 580q0 35 20.5 58.5t51.5 27.5q49 8 96 12t92 4q199 0 351.5 -69.5t257 -183t161 -258t64.5 -293.5q6 -152 -40 -295.5t-150.5 -255t-267.5 -180t-386 -68.5q-43 0 -87 2t-91 8q-33 4 -54.5 28.5t-21.5 59.5v502h-2 q-37 0 -61 26q-25 25 -25 62zM428 522q0 -8 4 -12t12 -4q20 2 56.5 15.5t71 45t61 87t26.5 145.5t-26.5 142t-62 79t-72.5 34t-56 7q-6 0 -10 -4q-4 -8 -4 -10v-132l117 3q37 0 61 -25q25 -29 25 -64l-2 -153q-2 -35 -26.5 -59.5t-59.5 -24.5h-115v-70z" />
<glyph unicode="&#xd1;" horiz-adv-x="1396" d="M0 127l20 1364q0 35 25 59.5t59 24.5h383q27 0 47.5 -13.5t30.5 -37.5l223 -531q6 -10 17 -10q12 4 12 14v500q0 35 24.5 60.5t59.5 25.5h344q35 0 60 -27q25 -23 24 -61l-45 -1386q-2 -35 -25.5 -57.5t-58.5 -24.5l-369 -4q-59 -4 -81 53l-181 448q-4 12 -16 8 q-10 0 -10 -12l-13 -407q0 -35 -24 -60q-29 -23 -62 -22l-362 10q-35 2 -58.5 26.5t-23.5 59.5zM399 1980.5q3 22.5 21 38.5q51 47 91 64.5t75 17.5q45 0 78.5 -22.5t64.5 -44t62.5 -32.5t68.5 13q23 16 47.5 11t40.5 -25l37 -49q14 -20 12 -44t-18 -42q-43 -45 -81 -61.5 t-73 -16.5q-43 0 -80.5 18.5t-74.5 38t-74 28.5t-76 -9q-23 -10 -46 -3t-38 29l-28 45q-12 23 -9 45.5z" />
<glyph unicode="&#xd2;" horiz-adv-x="1472" d="M0 805q0 166 55.5 312.5t150.5 255t224.5 172t274.5 63.5t274 -63.5t224 -172t150.5 -255t55.5 -312.5t-55.5 -312.5t-150.5 -256t-224 -172t-274 -62.5t-274.5 62.5t-224.5 172t-150.5 256t-55.5 312.5zM492 766q0 -57 18 -108.5t49 -89.5t73 -59.5t89 -21.5t89 21.5 t72.5 59.5t49 89.5t18.5 108.5t-18.5 108.5t-49 89t-72.5 59t-89 21.5t-89 -21.5t-73 -59t-49 -89t-18 -108.5zM555 1898q6 37 37 52l106 53q25 14 52.5 5t42.5 -36l112 -207q12 -23 7 -48t-25 -42l-47 -37q-23 -18 -50.5 -16t-46.5 25l-172 192q-23 23 -16 59z" />
<glyph unicode="&#xd3;" horiz-adv-x="1472" d="M0 805q0 166 55.5 312.5t150.5 255t224.5 172t274.5 63.5t274 -63.5t224 -172t150.5 -255t55.5 -312.5t-55.5 -312.5t-150.5 -256t-224 -172t-274 -62.5t-274.5 62.5t-224.5 172t-150.5 256t-55.5 312.5zM492 766q0 -57 18 -108.5t49 -89.5t73 -59.5t89 -21.5t89 21.5 t72.5 59.5t49 89.5t18.5 108.5t-18.5 108.5t-49 89t-72.5 59t-89 21.5t-89 -21.5t-73 -59t-49 -89t-18 -108.5zM562.5 1818.5q-5.5 24.5 6.5 47.5l111 202q14 27 41 36.5t51 -5.5l105 -51q31 -14 36 -51q7 -37 -16 -60l-170 -188q-16 -23 -44 -25t-50 17l-47 37 q-18 16 -23.5 40.5z" />
<glyph unicode="&#xd4;" horiz-adv-x="1472" d="M0 805q0 166 55.5 312.5t150.5 255t224.5 172t274.5 63.5t274 -63.5t224 -172t150.5 -255t55.5 -312.5t-55.5 -312.5t-150.5 -256t-224 -172t-274 -62.5t-274.5 62.5t-224.5 172t-150.5 256t-55.5 312.5zM492 766q0 -57 18 -108.5t49 -89.5t73 -59.5t89 -21.5t89 21.5 t72.5 59.5t49 89.5t18.5 108.5t-18.5 108.5t-49 89t-72.5 59t-89 21.5t-89 -21.5t-73 -59t-49 -89t-18 -108.5zM497 1832q-5 24 7 44l117 201q18 31 55 30h119q37 0 55 -30l117 -203q12 -18 9 -41t-22 -39l-36 -31q-18 -18 -45 -16t-44 22l-86 95q-4 2 -5 3t-5 1q-2 0 -6 -4 l-72 -95q-10 -10 -19 -16t-24 -8q-27 -2 -47 12l-45 37q-18 14 -23 38z" />
<glyph unicode="&#xd5;" horiz-adv-x="1472" d="M0 805q0 166 55.5 312.5t150.5 255t224.5 172t274.5 63.5t274 -63.5t224 -172t150.5 -255t55.5 -312.5t-55.5 -312.5t-150.5 -256t-224 -172t-274 -62.5t-274.5 62.5t-224.5 172t-150.5 256t-55.5 312.5zM437.5 1980.5q3.5 22.5 21.5 38.5q51 47 91 64.5t75 17.5 q45 0 78.5 -22.5t64.5 -44t62.5 -32.5t68.5 13q23 16 47.5 11t40.5 -25l37 -49q14 -20 12 -44t-18 -42q-43 -45 -81 -61.5t-73 -16.5q-43 0 -81 18.5t-74.5 38t-73.5 28.5t-76 -9q-23 -10 -46.5 -3t-37.5 29l-29 45q-12 23 -8.5 45.5zM492 766q0 -57 18 -108.5t49 -89.5 t73 -59.5t89 -21.5t89 21.5t72.5 59.5t49 89.5t18.5 108.5t-18.5 108.5t-49 89t-72.5 59t-89 21.5t-89 -21.5t-73 -59t-49 -89t-18 -108.5z" />
<glyph unicode="&#xd6;" horiz-adv-x="1472" d="M0 805q0 166 55.5 312.5t150.5 255t224.5 172t274.5 63.5t274 -63.5t224 -172t150.5 -255t55.5 -312.5t-55.5 -312.5t-150.5 -256t-224 -172t-274 -62.5t-274.5 62.5t-224.5 172t-150.5 256t-55.5 312.5zM473 1995q0 47 33 79.5t80 32.5t78.5 -32.5t31.5 -79.5t-31.5 -80 t-78.5 -33t-80 33t-33 80zM492 766q0 -57 18 -108.5t49 -89.5t73 -59.5t89 -21.5t89 21.5t72.5 59.5t49 89.5t18.5 108.5t-18.5 108.5t-49 89t-72.5 59t-89 21.5t-89 -21.5t-73 -59t-49 -89t-18 -108.5zM774 1995q0 -47 33 -80t80 -33t79.5 33t32.5 80t-32.5 79.5 t-79.5 32.5t-80 -32.5t-33 -79.5z" />
<glyph unicode="&#xd8;" horiz-adv-x="1472" d="M0 805q0 166 55.5 312.5t150.5 255t224.5 172t274.5 63.5t274 -63.5t224 -172t150.5 -255t55.5 -312.5t-55.5 -312.5t-150.5 -256t-224 -172t-274 -62.5t-274.5 62.5t-224.5 172t-150.5 256t-55.5 312.5zM219 -5q-12 32 4 64l697 1543q16 35 49 47t65 -4l160 -76 q31 -16 43 -48t-2 -65l-703 -1540q-16 -33 -49 -45t-65 4l-154 72q-33 16 -45 48zM492 766q0 -57 18 -108.5t49 -89.5t73 -59.5t89 -21.5t89 21.5t72.5 59.5t49 89.5t18.5 108.5t-18.5 108.5t-49 89t-72.5 59t-89 21.5t-89 -21.5t-73 -59t-49 -89t-18 -108.5z" />
<glyph unicode="&#xd9;" horiz-adv-x="1509" d="M0 1049q0 113 6 226t14 224q2 35 26 56.5t58 23.5h447q35 2 61 -25q25 -25 25 -59q-2 -92 -2 -214v-243q0 -123 1 -224t5 -155q4 -63 26.5 -101t49.5 -38q23 0 43 34t31 112q6 47 9 109.5t5 133t3 147.5t1 152q0 80 -1 155t-1 134q0 35 24.5 60.5t59.5 25.5l397 4 q35 2 58.5 -20.5t27.5 -57.5q10 -111 17.5 -233.5t7.5 -249.5q0 -184 -25.5 -362.5t-97.5 -320.5t-201 -232.5t-336 -98.5q-154 -6 -268.5 30t-196 104.5t-135 167t-84 215t-43 248.5t-12.5 272zM573 1898q6 37 37 52l107 53q25 14 52.5 5t41.5 -36l113 -207q12 -23 7 -48 t-26 -42l-47 -37q-23 -18 -50.5 -16t-45.5 25l-172 192q-23 23 -17 59z" />
<glyph unicode="&#xda;" horiz-adv-x="1509" d="M0 1049q0 -139 12.5 -271.5t43 -249t84 -215t135 -167t196.5 -104.5t268 -30q207 8 336 98.5t201 232.5t97.5 320.5t25.5 362.5q0 127 -7.5 250t-17.5 233q-4 35 -27.5 57.5t-58.5 20.5l-397 -4q-35 0 -59.5 -25.5t-24.5 -60.5q0 -59 1 -134t1 -155q0 -76 -1 -152.5 t-3 -147t-5 -133t-9 -109.5q-10 -78 -31 -112t-43 -34q-27 0 -49.5 38t-26.5 101q-4 53 -5 154.5t-1 224.5v243t2 214q0 35 -25 59q-27 27 -61 25h-447q-35 -2 -58.5 -23.5t-25.5 -56.5q-8 -111 -14 -224.5t-6 -225.5zM580.5 1818.5q-5.5 24.5 7.5 47.5l110 202 q14 27 41 36.5t52 -5.5l104 -51q31 -14 37 -51t-17 -60l-170 -188q-16 -23 -43.5 -25t-50.5 17l-47 37q-18 16 -23.5 40.5z" />
<glyph unicode="&#xdb;" horiz-adv-x="1509" d="M0 1049q0 -139 12.5 -271.5t43 -249t84 -215t135 -167t196.5 -104.5t268 -30q207 8 336 98.5t201 232.5t97.5 320.5t25.5 362.5q0 127 -7.5 250t-17.5 233q-4 35 -27.5 57.5t-58.5 20.5l-397 -4q-35 0 -59.5 -25.5t-24.5 -60.5q0 -59 1 -134t1 -155q0 -76 -1 -152.5 t-3 -147t-5 -133t-9 -109.5q-10 -78 -31 -112t-43 -34q-27 0 -49.5 38t-26.5 101q-4 53 -5 154.5t-1 224.5v243t2 214q0 35 -25 59q-27 27 -61 25h-447q-35 -2 -58.5 -23.5t-25.5 -56.5q-8 -111 -14 -224.5t-6 -225.5zM515.5 1832q-5.5 24 6.5 44l117 201q18 31 55 30h119 q37 0 55 -30l117 -203q12 -18 9 -41t-21 -39l-37 -31q-18 -18 -45 -16t-43 22l-86 95q-4 2 -5 3t-5 1q-2 0 -7 -4l-71 -95q-10 -10 -19.5 -16t-23.5 -8q-27 -2 -47 12l-45 37q-18 14 -23.5 38z" />
<glyph unicode="&#xdc;" horiz-adv-x="1509" d="M0 1049q0 -139 12.5 -271.5t43 -249t84 -215t135 -167t196.5 -104.5t268 -30q207 8 336 98.5t201 232.5t97.5 320.5t25.5 362.5q0 127 -7.5 250t-17.5 233q-4 35 -27.5 57.5t-58.5 20.5l-397 -4q-35 0 -59.5 -25.5t-24.5 -60.5q0 -59 1 -134t1 -155q0 -76 -1 -152.5 t-3 -147t-5 -133t-9 -109.5q-10 -78 -31 -112t-43 -34q-27 0 -49.5 38t-26.5 101q-4 53 -5 154.5t-1 224.5v243t2 214q0 35 -25 59q-27 27 -61 25h-447q-35 -2 -58.5 -23.5t-25.5 -56.5q-8 -111 -14 -224.5t-6 -225.5zM492 1995q0 47 32.5 79.5t79.5 32.5t79 -32.5t32 -79.5 t-32 -80t-79 -33t-79.5 33t-32.5 80zM793 1995q0 -47 32.5 -80t79.5 -33t80 33t33 80t-33 79.5t-80 32.5t-79.5 -32.5t-32.5 -79.5z" />
<glyph unicode="&#xdd;" horiz-adv-x="1329" d="M6 1464l371 -946l-17 -414q0 -39 25 -63q25 -27 61 -27l418 6q35 0 62 27q25 27 20 64l-31 421l359 924q16 41 -8 78q-25 35 -70 39l-362 12q-31 2 -54.5 -17.5t-31.5 -47.5l-89 -369q-4 -10 -14 -10t-14 10l-111 371q-8 29 -30.5 45t-51.5 16l-354 -2q-43 0 -70 -39 q-24 -35 -8 -78zM490.5 1818.5q-5.5 24.5 7.5 47.5l110 202q14 27 41 36.5t51 -5.5l105 -51q31 -14 37 -51t-17 -60l-170 -188q-16 -23 -43.5 -25t-50.5 17l-47 37q-18 16 -23.5 40.5z" />
<glyph unicode="&#xde;" horiz-adv-x="1415" d="M0 86l4 1403q0 37 25 61q25 25 59 25l422 -4q37 0 61 -25q25 -25 23 -61l-2 -82q27 4 51.5 4h50.5q174 -2 299 -57.5t205 -145.5t115 -203.5t26 -232.5q-6 -109 -50 -214t-129 -185t-213 -127t-302 -39q-41 0 -74 6l-2 -125q-2 -35 -26.5 -59.5t-59.5 -24.5h-399 q-33 0 -59 27q-25 25 -25 59zM578 600q39 -39 96 -39q31 0 63.5 13.5t59 38t46 61.5t25.5 84q8 70 -4 124t-36.5 90t-58.5 54t-69 18q-70 0 -114 -59z" />
<glyph unicode="&#xdf;" horiz-adv-x="1159" d="M0 336q0 94 2 194.5t8 202t18.5 200.5t32.5 189q27 125 74 211t105.5 140.5t126 79t137.5 24.5q90 0 176 -36t153.5 -95.5t109.5 -137t42 -161.5t-47 -165t-158 -153q63 -4 122 -40.5t103 -95t69.5 -131.5t25.5 -148q0 -72 -26.5 -140.5t-86.5 -123.5 q-117 -111 -373 -144q-35 -6 -65 19q-29 25 -31 61l-6 121q-4 53 41 78q82 47 121 106.5t39 114.5q0 63 -48.5 109.5t-144.5 50.5q-27 0 -26 26l-7 160q0 20 17 27q47 23 66.5 57.5t19.5 71.5q0 33 -12.5 63.5t-32 55t-44 40t-48.5 15.5q-39 0 -69 -47.5t-32 -163.5 q-2 -66 -2 -130.5v-129.5q0 -156 2 -309.5t4 -313.5q0 -35 -24 -59q-25 -25 -60 -25h-186q-35 0 -59.5 24.5t-24.5 59.5q0 55 -1 117.5t-1 130.5z" />
<glyph unicode="&#xe0;" horiz-adv-x="1265" d="M0 643q2 160 46 266.5t111.5 171t151.5 92t166 27.5t152.5 -21.5t111.5 -56.5q6 -6 15 -2q6 2 10 13v2q4 33 27.5 53t54.5 20l229 2q35 0 59.5 -24.5t26.5 -59.5l17 -1036q0 -33 -23 -61q-25 -25 -61 -25l-226 -2q-29 0 -52 17.5t-30 46.5l-12 47q-2 6 -10 10 q-4 2 -12 -2q-86 -66 -168 -95.5t-158 -29.5q-94 0 -173 45t-135.5 129t-88 204t-29.5 269zM451 1436q6 37 36 51l107 53q25 14 52.5 5t41.5 -36l113 -206q12 -23 7 -48.5t-26 -42.5l-47 -36q-23 -18 -50.5 -16.5t-45.5 24.5l-172 192q-23 23 -16 60zM475 514 q0 -43 23.5 -73.5t70.5 -30.5q33 0 76 18t96 61q6 2 7 11v166q0 8 -11 12q-20 6 -39.5 8t-35.5 2q-47 0 -82 -16.5t-58.5 -41t-35 -55t-11.5 -61.5z" />
<glyph unicode="&#xe1;" horiz-adv-x="1265" d="M0 643q-2 -150 29.5 -269.5t88 -203.5t135.5 -129t173 -45q76 0 158 29.5t168 95.5q8 4 12 2q8 -4 10 -10l12 -47q6 -29 30 -46.5t52 -17.5l226 2q37 0 61 25q23 29 23 61l-17 1036q-2 35 -26.5 59.5t-59.5 24.5l-229 -2q-31 0 -54.5 -20.5t-27.5 -52.5v-2 q-4 -10 -10 -13q-9 -4 -15 2q-41 35 -111.5 56.5t-152.5 21.5t-166 -27.5t-151.5 -92t-111.5 -171t-46 -266.5zM460 1355.5q-5 24.5 7 47.5l111 203q14 27 40.5 36t51.5 -6l104 -51q31 -14 37 -51q7 -36 -16 -59l-170 -189q-16 -23 -44 -24.5t-51 16.5l-47 37 q-18 16 -23 40.5zM475 514q0 31 11.5 61.5t35 55t58 41t82.5 16.5q16 0 35.5 -2t39.5 -8q10 -4 11 -12v-166q-1 -9 -7 -11q-53 -43 -96 -61t-76 -18q-47 0 -70.5 30.5t-23.5 73.5z" />
<glyph unicode="&#xe2;" horiz-adv-x="1265" d="M0 643q-2 -150 29.5 -269.5t88 -203.5t135.5 -129t173 -45q76 0 158 29.5t168 95.5q8 4 12 2q8 -4 10 -10l12 -47q6 -29 30 -46.5t52 -17.5l226 2q37 0 61 25q23 29 23 61l-17 1036q-2 35 -26.5 59.5t-59.5 24.5l-229 -2q-31 0 -54.5 -20.5t-27.5 -52.5v-2 q-4 -10 -10 -13q-9 -4 -15 2q-41 35 -111.5 56.5t-152.5 21.5t-166 -27.5t-151.5 -92t-111.5 -171t-46 -266.5zM394.5 1369q-5.5 24 6.5 44l117 201q18 31 55 31h119q37 0 56 -31l116 -203q12 -18 9 -40.5t-21 -39.5l-37 -31q-18 -18 -45 -16t-43 23l-86 94q-4 2 -5 3t-5 1 q-2 0 -6 -4l-72 -94q-10 -10 -19.5 -16.5t-23.5 -8.5q-27 -2 -47 12l-45 37q-18 14 -23.5 38zM475 514q0 31 11.5 61.5t35 55t58 41t82.5 16.5q16 0 35.5 -2t39.5 -8q10 -4 11 -12v-166q-1 -9 -7 -11q-53 -43 -96 -61t-76 -18q-47 0 -70.5 30.5t-23.5 73.5z" />
<glyph unicode="&#xe3;" horiz-adv-x="1265" d="M0 643q-2 -150 29.5 -269.5t88 -203.5t135.5 -129t173 -45q76 0 158 29.5t168 95.5q8 4 12 2q8 -4 10 -10l12 -47q6 -29 30 -46.5t52 -17.5l226 2q37 0 61 25q23 29 23 61l-17 1036q-2 35 -26.5 59.5t-59.5 24.5l-229 -2q-31 0 -54.5 -20.5t-27.5 -52.5v-2 q-4 -10 -10 -13q-9 -4 -15 2q-41 35 -111.5 56.5t-152.5 21.5t-166 -27.5t-151.5 -92t-111.5 -171t-46 -266.5zM333 1518q3 22 21 38q51 47 91 64.5t75 17.5q45 0 79 -22.5t64.5 -44t62.5 -32.5t69 13q23 16 47 11.5t41 -25.5l37 -49q14 -20 12 -44t-19 -42 q-43 -45 -80.5 -61.5t-72.5 -16.5q-43 0 -81 18.5t-75 38t-73.5 28.5t-75.5 -9q-23 -10 -46.5 -3t-37.5 29l-29 46q-12 23 -9 45zM475 514q0 31 11.5 61.5t35 55t58 41t82.5 16.5q16 0 35.5 -2t39.5 -8q10 -4 11 -12v-166q-1 -9 -7 -11q-53 -43 -96 -61t-76 -18 q-47 0 -70.5 30.5t-23.5 73.5z" />
<glyph unicode="&#xe4;" horiz-adv-x="1265" d="M0 643q-2 -150 29.5 -269.5t88 -203.5t135.5 -129t173 -45q76 0 158 29.5t168 95.5q8 4 12 2q8 -4 10 -10l12 -47q6 -29 30 -46.5t52 -17.5l226 2q37 0 61 25q23 29 23 61l-17 1036q-2 35 -26.5 59.5t-59.5 24.5l-229 -2q-31 0 -54.5 -20.5t-27.5 -52.5v-2 q-4 -10 -10 -13q-9 -4 -15 2q-41 35 -111.5 56.5t-152.5 21.5t-166 -27.5t-151.5 -92t-111.5 -171t-46 -266.5zM369 1532q0 47 32.5 80t79.5 33t79 -33t32 -80t-32 -80t-79 -33t-79.5 33t-32.5 80zM475 514q0 31 11.5 61.5t35 55t58 41t82.5 16.5q16 0 35.5 -2t39.5 -8 q10 -4 11 -12v-166q-1 -9 -7 -11q-53 -43 -96 -61t-76 -18q-47 0 -70.5 30.5t-23.5 73.5zM670 1532q0 -47 32.5 -80t79.5 -33t80 33t33 80t-33 80t-80 33t-79.5 -33t-32.5 -80z" />
<glyph unicode="&#xe5;" horiz-adv-x="1265" d="M0 643q-2 -150 29.5 -269.5t88 -203.5t135.5 -129t173 -45q76 0 158 29.5t168 95.5q8 4 12 2q8 -4 10 -10l12 -47q6 -29 30 -46.5t52 -17.5l226 2q37 0 61 25q23 29 23 61l-17 1036q-2 35 -26.5 59.5t-59.5 24.5l-229 -2q-31 0 -54.5 -20.5t-27.5 -52.5v-2 q-4 -10 -10 -13q-9 -4 -15 2q-41 35 -111.5 56.5t-152.5 21.5t-166 -27.5t-151.5 -92t-111.5 -171t-46 -266.5zM399 1423q0 45 18.5 86t50.5 72t74 48.5t89 17.5q49 0 91 -17.5t73.5 -48.5t50 -72t18.5 -86q0 -47 -18.5 -87t-50 -70.5t-73.5 -48t-91 -17.5q-47 0 -89 17.5 t-74 48t-50.5 70.5t-18.5 87zM475 514q0 31 11.5 61.5t35 55t58 41t82.5 16.5q16 0 35.5 -2t39.5 -8q10 -4 11 -12v-166q-1 -9 -7 -11q-53 -43 -96 -61t-76 -18q-47 0 -70.5 30.5t-23.5 73.5zM561 1423q0 -29 20.5 -50t49.5 -21q31 0 51 21.5t20 49.5q0 29 -20 50.5 t-51 21.5q-29 0 -49.5 -21.5t-20.5 -50.5z" />
<glyph unicode="&#xe6;" horiz-adv-x="1855" d="M0 643q2 160 46 266.5t111.5 171t151.5 92t166 27.5t152.5 -21.5t111.5 -56.5q6 -6 15 -2q6 2 10 13v2q4 33 27.5 53t54.5 20l432 11q125 -2 216 -46.5t152.5 -118t92 -171t33.5 -203.5q0 -33 -21.5 -57.5t-56.5 -28.5q-61 -6 -130 -10t-130.5 -8.5t-109.5 -7.5t-69 -5 q-10 0 -10 -12q-2 -10 -3 -27.5t-1 -38.5q0 -41 9.5 -79.5t41.5 -49.5q16 -6 38 0t44.5 20.5t45 32t40.5 35.5q25 25 58 25q35 0 61 -27l133 -141q25 -25 25 -57q0 -29 -23 -56q-25 -31 -66.5 -66.5t-101 -65t-136.5 -47t-171 -9.5q-25 2 -51.5 3t-79.5 1q-39 0 -96.5 -1 t-143.5 -1q-29 0 -52 17.5t-30 46.5l-12 47q-2 6 -10 10q-4 2 -12 -2q-86 -66 -168 -95.5t-158 -29.5q-94 0 -173 45t-135.5 129t-88 204t-29.5 269zM475 514q0 -43 23.5 -73.5t70.5 -30.5q33 0 76 18t96 61q6 2 7 11v166q0 8 -11 12q-20 6 -39.5 8t-35.5 2q-47 0 -82 -16.5 t-58.5 -41t-35 -55t-11.5 -61.5zM1266 819q0 -6 4 -10q6 -6 10 -6l121 2q6 0 12 6q4 4 2 12q-4 14 -10 37t-16.5 41.5t-25.5 29.5t-34 3q-18 -8 -30.5 -22.5t-19.5 -31t-10 -33t-3 -28.5z" />
<glyph unicode="&#xe7;" horiz-adv-x="1064" d="M2 573q-6 125 21.5 245t92 214t166 152.5t240.5 62.5q131 4 248 -65.5t180 -216.5q12 -35 0 -66q-14 -33 -47 -47l-194 -78q-29 -10 -57.5 -2t-45.5 35q-37 57 -90 57q-51 0 -93 -60.5t-42 -182.5v-28.5t2 -31.5q10 -100 57 -152.5t99 -52.5q25 0 47 12.5t39 41.5 q16 27 42.5 38t55.5 1l199 -60q37 -14 51 -45q14 -33 2 -68q-23 -53 -58.5 -104t-85 -93t-112 -70.5t-135.5 -35.5v-14h14q74 -2 127 -25.5t87 -61.5t49.5 -85t10.5 -96q-2 -47 -21.5 -91t-56 -78t-91 -53.5t-128.5 -17.5q-84 4 -139 41t-78 80q-8 14 0 27q8 14 27 18 l107 25q14 4 28.5 -1.5t22.5 -15.5q12 -16 32.5 -19t41 4t36 26.5t19.5 50.5q6 43 -6.5 69.5t-32 38.5t-42 9t-38.5 -21q-20 -23 -55 -12l-103 30q-6 4 -10 6.5t-8 6.5h-2q-8 6 -8 14v170q-90 29 -157 87t-112 136t-68.5 168t-27.5 184z" />
<glyph unicode="&#xe8;" horiz-adv-x="1073" d="M-6 545q0 51 6 106q16 147 65.5 255t119 177.5t152.5 103.5t165 32q125 -2 216 -46.5t152.5 -118t92 -171t32.5 -203.5q0 -33 -21.5 -57.5t-55.5 -28.5q-61 -6 -130 -10t-130.5 -8.5t-109.5 -7.5t-69 -5q-10 0 -10 -12q-2 -10 -3 -27.5t-1 -38.5q0 -41 9 -79.5t42 -49.5 q16 -6 37.5 0t44.5 20.5t45.5 32t40.5 35.5q25 25 57 25q35 0 62 -27l133 -141q25 -25 25 -57q0 -29 -23 -56q-25 -31 -67 -66.5t-101 -65t-136 -47t-171 -9.5q-123 8 -212 54t-146.5 119t-84 168t-26.5 204zM354 1436q6 37 37 51l107 53q25 14 52.5 5t41.5 -36l113 -206 q12 -23 7 -48.5t-26 -42.5l-47 -36q-23 -18 -50.5 -16.5t-45.5 24.5l-172 192q-23 23 -17 60zM489 819q0 -6 5 -10q6 -6 10 -6l121 2q6 0 12 6q4 4 2 12q-4 14 -10 37t-16.5 41.5t-26 29.5t-33.5 3t-30.5 -22.5t-19.5 -31t-10.5 -33t-3.5 -28.5z" />
<glyph unicode="&#xe9;" horiz-adv-x="1073" d="M-6 545q0 -109 26.5 -204t84 -168t146.5 -119t212 -54q94 -8 171 9.5t136 47t101 65.5t67 66q23 27 23 56q0 33 -25 57l-133 141q-27 27 -62 27q-33 0 -57 -25q-18 -18 -40.5 -35.5t-45.5 -32t-44.5 -20.5t-37.5 0q-33 10 -42 49t-9 80q0 20 1 38t3 28q0 12 10 12 q20 2 68.5 5t110 7.5t130 8.5t130.5 10q35 4 56 28.5t21 57.5q-2 106 -32.5 203.5t-92 171t-152.5 118t-216 46.5q-82 2 -165 -32t-152.5 -103.5t-119 -177t-65.5 -255.5q-6 -55 -6 -106zM363.5 1355.5q-5.5 24.5 7.5 47.5l110 203q14 27 41 36t51 -6l105 -51q31 -14 37 -51 q6 -36 -17 -59l-170 -189q-16 -23 -43.5 -24.5t-50.5 16.5l-47 37q-18 16 -23.5 40.5zM489 819q0 12 3.5 28.5t10.5 33t19.5 31t30.5 22.5t33.5 -3t26 -29.5t16.5 -41l10 -37.5q2 -8 -2 -12q-6 -6 -12 -6l-121 -2q-4 0 -10 6q-5 4 -5 10z" />
<glyph unicode="&#xea;" horiz-adv-x="1073" d="M-6 545q0 -109 26.5 -204t84 -168t146.5 -119t212 -54q94 -8 171 9.5t136 47t101 65.5t67 66q23 27 23 56q0 33 -25 57l-133 141q-27 27 -62 27q-33 0 -57 -25q-18 -18 -40.5 -35.5t-45.5 -32t-44.5 -20.5t-37.5 0q-33 10 -42 49t-9 80q0 20 1 38t3 28q0 12 10 12 q20 2 68.5 5t110 7.5t130 8.5t130.5 10q35 4 56 28.5t21 57.5q-2 106 -32.5 203.5t-92 171t-152.5 118t-216 46.5q-82 2 -165 -32t-152.5 -103.5t-119 -177t-65.5 -255.5q-6 -55 -6 -106zM298.5 1369q-5.5 24 6.5 44l117 201q18 31 55 31h119q37 0 55 -31l117 -203 q12 -18 9 -40.5t-21 -39.5l-37 -31q-18 -18 -45 -16t-43 23l-86 94q-4 2 -5 3t-5 1q-2 0 -7 -4l-71 -94q-10 -10 -19.5 -16.5t-23.5 -8.5q-27 -2 -47 12l-45 37q-18 14 -23.5 38zM489 819q0 12 3.5 28.5t10.5 33t19.5 31t30.5 22.5t33.5 -3t26 -29.5t16.5 -41l10 -37.5 q2 -8 -2 -12q-6 -6 -12 -6l-121 -2q-4 0 -10 6q-5 4 -5 10z" />
<glyph unicode="&#xeb;" horiz-adv-x="1073" d="M-6 545q0 -109 26.5 -204t84 -168t146.5 -119t212 -54q94 -8 171 9.5t136 47t101 65.5t67 66q23 27 23 56q0 33 -25 57l-133 141q-27 27 -62 27q-33 0 -57 -25q-18 -18 -40.5 -35.5t-45.5 -32t-44.5 -20.5t-37.5 0q-33 10 -42 49t-9 80q0 20 1 38t3 28q0 12 10 12 q20 2 68.5 5t110 7.5t130 8.5t130.5 10q35 4 56 28.5t21 57.5q-2 106 -32.5 203.5t-92 171t-152.5 118t-216 46.5q-82 2 -165 -32t-152.5 -103.5t-119 -177t-65.5 -255.5q-6 -55 -6 -106zM272 1532q0 47 33 80t80 33t79 -33t32 -80t-32 -80t-79 -33t-80 33t-33 80zM489 819 q0 12 3.5 28.5t10.5 33t19.5 31t30.5 22.5t33.5 -3t26 -29.5t16.5 -41l10 -37.5q2 -8 -2 -12q-6 -6 -12 -6l-121 -2q-4 0 -10 6q-5 4 -5 10zM573 1532q0 -47 33 -80t80 -33t80 33t33 80t-33 80t-80 33t-80 -33t-33 -80z" />
<glyph unicode="&#xec;" d="M0 94l14 1020q0 35 24.5 59.5t59.5 24.5h267q35 0 59.5 -23.5t24.5 -58.5l20 -1026q0 -35 -25 -59q-29 -29 -61 -25l-299 2q-37 0 -59 27q-25 25 -25 59zM23 1499q6 37 36 51l107 54q25 14 52.5 4.5t41.5 -35.5l113 -207q12 -23 7 -48.5t-26 -41.5l-47 -37 q-23 -18 -50.5 -16t-45.5 24l-172 193q-23 23 -16 59z" />
<glyph unicode="&#xed;" d="M0 94q0 -35 25 -59q23 -27 59 -27l299 -2q33 -4 61 25q25 25 25 59l-20 1026q0 35 -25 58.5t-59 23.5h-267q-35 0 -59.5 -24.5t-24.5 -59.5zM105.5 1355.5q-5.5 24.5 7.5 47.5l110 203q14 27 41 36t51 -6l105 -51q31 -14 37 -51q6 -36 -17 -59l-170 -189 q-16 -23 -43.5 -24.5t-50.5 16.5l-47 37q-18 16 -23.5 40.5z" />
<glyph unicode="&#xee;" d="M-15 1369q-5 24 7 44l117 201q18 31 55 31h119q37 0 55 -31l117 -203q12 -18 9 -40.5t-22 -39.5l-36 -31q-18 -18 -45 -16t-44 23l-86 94q-4 2 -5 3t-5 1q-2 0 -6 -4l-72 -94q-10 -10 -19 -16.5t-24 -8.5q-27 -2 -47 12l-45 37q-18 14 -23 38zM0 94q0 -35 25 -59 q23 -27 59 -27l299 -2q33 -4 61 25q25 25 25 59l-20 1026q0 35 -25 58.5t-59 23.5h-267q-35 0 -59.5 -24.5t-24.5 -59.5z" />
<glyph unicode="&#xef;" d="M-35 1532q0 47 33 80t80 33t78.5 -33t31.5 -80t-31.5 -80t-78.5 -33t-80 33t-33 80zM0 94q0 -35 25 -59q23 -27 59 -27l299 -2q33 -4 61 25q25 25 25 59l-20 1026q0 35 -25 58.5t-59 23.5h-267q-35 0 -59.5 -24.5t-24.5 -59.5zM266 1532q0 -47 33 -80t80 -33t80 33t33 80 t-33 80t-80 33t-80 -33t-33 -80z" />
<glyph unicode="&#xf0;" horiz-adv-x="1193" d="M2 537q6 100 43 173.5t94.5 123t132 73t158.5 23.5q106 0 215 -37q8 -4 17 4q4 10 0 16l-121 162l-23 -16q-27 -18 -58.5 -14t-53.5 28l-62 72q-25 25 -20 63q6 37 34 58l27 20l-45 60q-20 29 -14 67q6 35 39 55l151 91q27 16 56.5 10t50.5 -29l39 -45l40 31 q29 23 63 17.5t56 -34.5l62 -79q23 -29 16 -64q-6 -37 -35 -57l-28 -21l149 -178q59 -92 95 -208t40 -251q6 -164 -47 -287.5t-141 -206.5t-201 -125t-227 -42q-102 0 -196.5 33.5t-165 102.5t-110.5 171.5t-30 239.5zM463 494q-4 -53 25.5 -90t82.5 -25q45 10 65.5 41 t25.5 65q2 27 -3.5 52.5t-17.5 47t-29 35t-37 13.5q-25 0 -45 -15.5t-34.5 -37t-22.5 -46t-10 -40.5z" />
<glyph unicode="&#xf1;" horiz-adv-x="1148" d="M0 1126q0 35 24.5 59.5t59.5 24.5l203 2q37 0 61 -24q18 -18 23 -45q4 -10 10 -13q6 -4 14 5q43 41 127 69.5t176 24.5q111 -4 181.5 -67.5t110.5 -164t55.5 -225.5t15.5 -254q0 -125 -9.5 -239.5t-19.5 -202.5q-4 -35 -28.5 -55.5t-57.5 -20.5l-239 6q-37 4 -60 27 q-23 25 -22 61q2 43 4 99.5t2 119.5q0 76 -4 154t-14.5 143.5t-29 110.5t-46.5 55q-25 8 -43.5 -17.5t-30.5 -74.5t-20.5 -115.5t-12.5 -138.5t-5 -143.5t-1 -130.5v-68q0 -37 -25 -61q-25 -25 -59 -25h-248q-35 -2 -59.5 22.5t-24.5 59.5zM276 1518q3 22 21 38 q51 47 91 64.5t75 17.5q45 0 78.5 -22.5t64.5 -44t62.5 -32.5t68.5 13q23 16 47.5 11.5t40.5 -25.5l37 -49q14 -20 12 -44t-18 -42q-43 -45 -81 -61.5t-73 -16.5q-43 0 -80.5 18.5t-74.5 38t-74 28.5t-76 -9q-23 -10 -46 -3t-38 29l-28 46q-12 23 -9 45z" />
<glyph unicode="&#xf2;" horiz-adv-x="1228" d="M0 621q0 162 48 280.5t128 196.5t182.5 116.5t208.5 38.5q111 0 216.5 -39.5t189.5 -118.5t135 -195.5t51 -270.5q0 -133 -49 -252t-132 -208t-190.5 -140.5t-224.5 -51.5t-219 50.5t-179 137.5t-121 204.5t-44 251.5zM395 588q0 -47 14.5 -87t39 -71t58.5 -48t71 -17 q39 0 72.5 17t58 48t39 71t14.5 87q0 45 -14.5 86t-39 71.5t-58 48t-72.5 17.5q-37 0 -71 -17.5t-58.5 -48t-39 -71.5t-14.5 -86zM432 1436q6 37 37 51l106 53q25 14 52.5 5t42.5 -36l112 -206q12 -23 7 -48.5t-25 -42.5l-47 -36q-23 -18 -50.5 -16.5t-45.5 24.5l-172 192 q-23 23 -17 60z" />
<glyph unicode="&#xf3;" horiz-adv-x="1228" d="M0 621q0 162 48 280.5t128 196.5t182.5 116.5t208.5 38.5q111 0 216.5 -39.5t189.5 -118.5t135 -195.5t51 -270.5q0 -133 -49 -252t-132 -208t-190.5 -140.5t-224.5 -51.5t-219 50.5t-179 137.5t-121 204.5t-44 251.5zM395 588q0 -47 14.5 -87t39 -71t58.5 -48t71 -17 q39 0 72.5 17t58 48t39 71t14.5 87q0 45 -14.5 86t-39 71.5t-58 48t-72.5 17.5q-37 0 -71 -17.5t-58.5 -48t-39 -71.5t-14.5 -86zM441.5 1355.5q-5.5 24.5 7.5 47.5l110 203q14 27 41 36t51 -6l105 -51q31 -14 37 -51q6 -36 -17 -59l-170 -189q-16 -23 -43.5 -24.5 t-50.5 16.5l-47 37q-18 16 -23.5 40.5z" />
<glyph unicode="&#xf4;" horiz-adv-x="1228" d="M0 621q0 162 48 280.5t128 196.5t182.5 116.5t208.5 38.5q111 0 216.5 -39.5t189.5 -118.5t135 -195.5t51 -270.5q0 -133 -49 -252t-132 -208t-190.5 -140.5t-224.5 -51.5t-219 50.5t-179 137.5t-121 204.5t-44 251.5zM376 1369q-5 24 7 44l117 201q18 31 55 31h119 q37 0 55 -31l117 -203q12 -18 9 -40.5t-21 -39.5l-37 -31q-18 -18 -45 -16t-43 23l-86 94q-4 2 -5.5 3t-5.5 1q-2 0 -6 -4l-71 -94q-10 -10 -19.5 -16.5t-23.5 -8.5q-27 -2 -48 12l-45 37q-18 14 -23 38zM395 588q0 -47 14.5 -87t39 -71t58.5 -48t71 -17q39 0 72.5 17t58 48 t39 71t14.5 87q0 45 -14.5 86t-39 71.5t-58 48t-72.5 17.5q-37 0 -71 -17.5t-58.5 -48t-39 -71.5t-14.5 -86z" />
<glyph unicode="&#xf5;" horiz-adv-x="1228" d="M0 621q0 162 48 280.5t128 196.5t182.5 116.5t208.5 38.5q111 0 216.5 -39.5t189.5 -118.5t135 -195.5t51 -270.5q0 -133 -49 -252t-132 -208t-190.5 -140.5t-224.5 -51.5t-219 50.5t-179 137.5t-121 204.5t-44 251.5zM315 1518q3 22 21 38q51 47 91 64.5t75 17.5 q45 0 78.5 -22.5t64.5 -44t62.5 -32.5t68.5 13q23 16 47.5 11.5t40.5 -25.5l37 -49q14 -20 12 -44t-18 -42q-43 -45 -81 -61.5t-73 -16.5q-43 0 -80.5 18.5t-74.5 38t-74 28.5t-76 -9q-23 -10 -46 -3t-38 29l-28 46q-12 23 -9 45zM395 588q0 -47 14.5 -87t39 -71t58.5 -48 t71 -17q39 0 72.5 17t58 48t39 71t14.5 87q0 45 -14.5 86t-39 71.5t-58 48t-72.5 17.5q-37 0 -71 -17.5t-58.5 -48t-39 -71.5t-14.5 -86z" />
<glyph unicode="&#xf6;" horiz-adv-x="1228" d="M0 621q0 162 48 280.5t128 196.5t182.5 116.5t208.5 38.5q111 0 216.5 -39.5t189.5 -118.5t135 -195.5t51 -270.5q0 -133 -49 -252t-132 -208t-190.5 -140.5t-224.5 -51.5t-219 50.5t-179 137.5t-121 204.5t-44 251.5zM350 1532q0 47 33 80t80 33t78.5 -33t31.5 -80 t-31.5 -80t-78.5 -33t-80 33t-33 80zM395 588q0 -47 14.5 -87t39 -71t58.5 -48t71 -17q39 0 72.5 17t58 48t39 71t14.5 87q0 45 -14.5 86t-39 71.5t-58 48t-72.5 17.5q-37 0 -71 -17.5t-58.5 -48t-39 -71.5t-14.5 -86zM651 1532q0 -47 33 -80t80 -33t80 33t33 80t-33 80 t-80 33t-80 -33t-33 -80z" />
<glyph unicode="&#xf8;" horiz-adv-x="1228" d="M0 621q0 160 48 279.5t128 197.5t182.5 116.5t208.5 38.5q82 0 156 -20l51 113q16 35 49 47t66 -4l84 -39q31 -16 43 -48t-2 -65l-58 -127q92 -80 147.5 -199.5t55.5 -281.5q0 -133 -49 -252t-132 -208t-190.5 -140.5t-224.5 -51.5q-59 0 -110 13l-43 -96 q-16 -33 -50 -46q-33 -12 -65 5l-78 34q-33 16 -45 48t4 65l47 106q-104 88 -163.5 221.5t-59.5 293.5zM395 588q0 -43 8 -74l129 291q-59 -18 -98 -78.5t-39 -138.5zM625 371q59 20 98 79.5t39 137.5q0 33 -10 69z" />
<glyph unicode="&#xf9;" horiz-adv-x="1249" d="M0 829q0 82 4 160t10 150q4 35 26.5 56.5t57.5 21.5h293q31 0 62 -27q23 -25 22 -62q-2 -43 -4 -99t-2 -120q0 -76 4 -152.5t14.5 -142t29 -110.5t46.5 -55q25 -10 43.5 16.5t30.5 74.5t20.5 114.5t12.5 138t5 143.5t1 131v68q0 37 24 61q27 25 64 25l293 -13 q35 -2 57.5 -25.5t24.5 -58.5l6 -1026q0 -35 -24.5 -59.5t-59.5 -24.5l-248 -2q-37 0 -61 25q-20 23 -23 47q0 2 -1 2t-1 2q0 10 -8 12q-6 4 -14 -4q-45 -39 -116 -65.5t-151 -26.5q-68 0 -136.5 25.5t-126.5 87t-101 165t-60 259.5q-8 72 -11 144.5t-3 143.5zM442 1436 q6 37 37 51l107 53q25 14 52.5 5t41.5 -36l113 -206q12 -23 7 -48.5t-26 -42.5l-47 -36q-23 -18 -50.5 -16.5t-45.5 24.5l-172 192q-23 23 -17 60z" />
<glyph unicode="&#xfa;" horiz-adv-x="1249" d="M0 829q0 82 4 160t10 150q4 35 26.5 56.5t57.5 21.5h293q31 0 62 -27q23 -25 22 -62q-2 -43 -4 -99t-2 -120q0 -76 4 -152.5t14.5 -142t29 -110.5t46.5 -55q25 -10 43.5 16.5t30.5 74.5t20.5 114.5t12.5 138t5 143.5t1 131v68q0 37 24 61q27 25 64 25l293 -13 q35 -2 57.5 -25.5t24.5 -58.5l6 -1026q0 -35 -24.5 -59.5t-59.5 -24.5l-248 -2q-37 0 -61 25q-20 23 -23 47q0 2 -1 2t-1 2q0 10 -8 12q-6 4 -14 -4q-45 -39 -116 -65.5t-151 -26.5q-68 0 -136.5 25.5t-126.5 87t-101 165t-60 259.5q-8 72 -11 144.5t-3 143.5zM451.5 1355.5 q-5.5 24.5 7.5 47.5l110 203q14 27 41 36t52 -6l104 -51q31 -14 37 -51q6 -36 -17 -59l-170 -189q-16 -23 -43.5 -24.5t-50.5 16.5l-47 37q-18 16 -23.5 40.5z" />
<glyph unicode="&#xfb;" horiz-adv-x="1249" d="M0 829q0 82 4 160t10 150q4 35 26.5 56.5t57.5 21.5h293q31 0 62 -27q23 -25 22 -62q-2 -43 -4 -99t-2 -120q0 -76 4 -152.5t14.5 -142t29 -110.5t46.5 -55q25 -10 43.5 16.5t30.5 74.5t20.5 114.5t12.5 138t5 143.5t1 131v68q0 37 24 61q27 25 64 25l293 -13 q35 -2 57.5 -25.5t24.5 -58.5l6 -1026q0 -35 -24.5 -59.5t-59.5 -24.5l-248 -2q-37 0 -61 25q-20 23 -23 47q0 2 -1 2t-1 2q0 10 -8 12q-6 4 -14 -4q-45 -39 -116 -65.5t-151 -26.5q-68 0 -136.5 25.5t-126.5 87t-101 165t-60 259.5q-8 72 -11 144.5t-3 143.5zM386.5 1369 q-5.5 24 6.5 44l117 201q18 31 55 31h119q37 0 55 -31l117 -203q12 -18 9 -40.5t-21 -39.5l-37 -31q-18 -18 -45 -16t-43 23l-86 94q-4 2 -5 3t-5 1q-2 0 -7 -4l-71 -94q-10 -10 -19.5 -16.5t-23.5 -8.5q-27 -2 -47 12l-45 37q-18 14 -23.5 38z" />
<glyph unicode="&#xfc;" horiz-adv-x="1249" d="M0 829q0 82 4 160t10 150q4 35 26.5 56.5t57.5 21.5h293q31 0 62 -27q23 -25 22 -62q-2 -43 -4 -99t-2 -120q0 -76 4 -152.5t14.5 -142t29 -110.5t46.5 -55q25 -10 43.5 16.5t30.5 74.5t20.5 114.5t12.5 138t5 143.5t1 131v68q0 37 24 61q27 25 64 25l293 -13 q35 -2 57.5 -25.5t24.5 -58.5l6 -1026q0 -35 -24.5 -59.5t-59.5 -24.5l-248 -2q-37 0 -61 25q-20 23 -23 47q0 2 -1 2t-1 2q0 10 -8 12q-6 4 -14 -4q-45 -39 -116 -65.5t-151 -26.5q-68 0 -136.5 25.5t-126.5 87t-101 165t-60 259.5q-8 72 -11 144.5t-3 143.5zM360 1532 q0 47 33 80t80 33t79 -33t32 -80t-32 -80t-79 -33t-80 33t-33 80zM662 1532q0 -47 32.5 -80t79.5 -33t80 33t33 80t-33 80t-80 33t-79.5 -33t-32.5 -80z" />
<glyph unicode="&#xfd;" horiz-adv-x="1236" d="M-35 -403q-6 -35 11.5 -62t50.5 -37q102 -29 199.5 -43t189.5 -14q186 0 335.5 69.5t247.5 231.5q45 72 73 185.5t43 247.5t21.5 276.5t6.5 273.5q0 125 -3 228.5t-7 168.5q-2 35 -27 57.5t-59 22.5l-299 -6q-37 0 -62 -27q-23 -25 -22 -63q4 -49 7 -115.5t3 -138.5 t-4 -142.5t-16.5 -127t-34 -92t-54.5 -35.5q-31 -2 -51 29.5t-32.5 84t-16.5 120t-4 138.5q0 80 4 157t8 130q4 35 -22 64q-27 27 -62 26l-287 2q-35 0 -58.5 -22.5t-25.5 -57.5q-4 -68 -8 -174t-4 -225q0 -84 3 -165t10.5 -151.5t20.5 -125t32 -80.5q55 -74 134 -123 t175 -49q86 0 182 49q8 4 15 -2q10 -4 6 -14q-18 -84 -98 -126t-181 -42q-43 0 -88 8t-86 24q-37 14 -72 -4q-37 -18 -43 -57zM445.5 1355.5q-5.5 24.5 7.5 47.5l110 203q14 27 41 36t51 -6l105 -51q31 -14 37 -51q6 -36 -17 -59l-170 -189q-16 -23 -43.5 -24.5t-50.5 16.5 l-47 37q-18 16 -23.5 40.5z" />
<glyph unicode="&#xfe;" horiz-adv-x="1056" d="M-2 -158l4 1796q0 37 25 62t59 24l182 -4q37 0 62 -24q25 -25 22 -62l-2 -323q55 6 105 6q135 0 232 -35t160.5 -99.5t94.5 -154.5t31 -201v-30.5t-2 -30.5q-8 -106 -38 -197.5t-89.5 -159t-152.5 -105.5t-228 -38q-31 0 -64.5 2t-68.5 6l-2 -434q-2 -35 -27 -59.5 t-59 -24.5h-160q-33 0 -59 27q-25 25 -25 59zM336 600q39 -39 96 -39q31 0 63.5 13.5t59.5 38t46.5 61.5t25.5 84q8 70 -4.5 124t-37 90t-58 54t-68.5 18q-70 0 -115 -59z" />
<glyph unicode="&#xff;" horiz-adv-x="1236" d="M-35 -403q-6 -35 11.5 -62t50.5 -37q102 -29 199.5 -43t189.5 -14q186 0 335.5 69.5t247.5 231.5q45 72 73 185.5t43 247.5t21.5 276.5t6.5 273.5q0 125 -3 228.5t-7 168.5q-2 35 -27 57.5t-59 22.5l-299 -6q-37 0 -62 -27q-23 -25 -22 -63q4 -49 7 -115.5t3 -138.5 t-4 -142.5t-16.5 -127t-34 -92t-54.5 -35.5q-31 -2 -51 29.5t-32.5 84t-16.5 120t-4 138.5q0 80 4 157t8 130q4 35 -22 64q-27 27 -62 26l-287 2q-35 0 -58.5 -22.5t-25.5 -57.5q-4 -68 -8 -174t-4 -225q0 -84 3 -165t10.5 -151.5t20.5 -125t32 -80.5q55 -74 134 -123 t175 -49q86 0 182 49q8 4 15 -2q10 -4 6 -14q-18 -84 -98 -126t-181 -42q-43 0 -88 8t-86 24q-37 14 -72 -4q-37 -18 -43 -57zM354 1532q0 47 33 80t80 33t79 -33t32 -80t-32 -80t-79 -33t-80 33t-33 80zM655 1532q0 -47 33 -80t80 -33t80 33t33 80t-33 80t-80 33t-80 -33 t-33 -80z" />
<glyph unicode="&#x152;" horiz-adv-x="2091" d="M0 805q0 166 55.5 312.5t150.5 255t224.5 172t274.5 63.5q59 0 116.5 -11.5t110.5 -31.5h956q37 0 62 -25q27 -27 26 -59v-244q0 -35 -23.5 -59.5t-58.5 -26.5l-340 -18q-14 0 -14 -15v-94q0 -14 14 -14h125q37 0 62 -27q25 -25 24 -61l-14 -228q-2 -35 -25.5 -57.5 t-58.5 -22.5h-141q-14 0 -15 -14l-4 -108q0 -2 4 -11q8 -4 13 -4l362 12q37 0 62 -24q27 -25 26 -62l-8 -317q0 -35 -25.5 -59.5t-60.5 -24.5l-1155 -2q-2 0 -4 2h-16q-145 0 -274.5 62.5t-224.5 172t-150.5 256t-55.5 312.5zM492 766q0 -57 18 -108.5t49 -89.5t73 -59.5 t89 -21.5t89 21.5t72.5 59.5t49 89.5t18.5 108.5t-18.5 108.5t-49 89t-72.5 59t-89 21.5t-89 -21.5t-73 -59t-49 -89t-18 -108.5z" />
<glyph unicode="&#x153;" horiz-adv-x="1845" d="M0 621q0 160 48 279.5t128 197.5t181.5 116.5t207.5 38.5q111 0 215.5 -38.5t188.5 -116.5q68 63 145.5 93t155.5 28q125 -2 216 -46.5t152.5 -118t92 -171t32.5 -203.5q0 -33 -21.5 -57.5t-55.5 -28.5q-61 -6 -130 -10t-130.5 -8.5t-109.5 -7.5t-69 -5q-10 0 -10 -12 q-2 -10 -3 -27.5t-1 -38.5q0 -41 9 -79.5t42 -49.5q16 -6 37.5 0t44.5 20.5t45.5 32t40.5 35.5q25 25 57 25q35 0 62 -27l133 -141q25 -25 25 -57q0 -29 -23 -56q-25 -31 -67 -66.5t-101 -65t-136 -47t-171 -9.5q-98 8 -175 39t-132 80q-78 -66 -170 -104t-191 -38 q-117 0 -219 50.5t-179 137.5t-121 204.5t-44 251.5zM395 588q0 -47 14.5 -87t39 -71t58.5 -48t71 -17q39 0 72.5 17t58 48t39 71t14.5 87q0 45 -14.5 86t-39 71.5t-58 48t-72.5 17.5q-37 0 -71 -17.5t-58.5 -48t-39 -71.5t-14.5 -86zM1257 819q0 -6 5 -10q6 -6 10 -6l121 2 q6 0 12 6q4 4 2 12q-4 14 -10 37t-16.5 41.5t-26 29.5t-33.5 3t-30.5 -22.5t-19.5 -31t-10.5 -33t-3.5 -28.5z" />
<glyph unicode="&#x178;" horiz-adv-x="1329" d="M6 1464l371 -946l-17 -414q0 -39 25 -63q25 -27 61 -27l418 6q35 0 62 27q25 27 20 64l-31 421l359 924q16 41 -8 78q-25 35 -70 39l-362 12q-31 2 -54.5 -17.5t-31.5 -47.5l-89 -369q-4 -10 -14 -10t-14 10l-111 371q-8 29 -30.5 45t-51.5 16l-354 -2q-43 0 -70 -39 q-24 -35 -8 -78zM401 1831q0 47 33 80t80 33t79 -33t32 -80t-32 -80t-79 -33t-80 33t-33 80zM702 1831q0 -47 33 -80t80 -33t80 33t33 80t-33 80t-80 33t-80 -33t-33 -80z" />
<glyph unicode="&#x2c6;" d="M-0.5 1369q-5.5 24 6.5 44l117 201q18 31 55 31h119q37 0 55 -31l117 -203q12 -18 9 -40.5t-21 -39.5l-37 -31q-18 -18 -45 -16t-43 23l-86 94q-4 2 -5 3t-5 1q-2 0 -7 -4l-71 -94q-10 -10 -19.5 -16.5t-23.5 -8.5q-27 -2 -47 12l-45 37q-18 14 -23.5 38z" />
<glyph unicode="&#x2dc;" horiz-adv-x="669" d="M-1 1518q3 22 21 38q51 47 91.5 64.5t74.5 17.5q45 0 79 -22.5t64.5 -44t62.5 -32.5t69 13q23 16 47 11.5t41 -25.5l37 -49q14 -20 12 -44t-18 -42q-43 -45 -81 -61.5t-73 -16.5q-43 0 -81 18.5t-75 38t-73.5 28.5t-75.5 -9q-23 -10 -46.5 -3t-37.5 29l-29 46 q-12 23 -9 45z" />
<glyph unicode="&#x2000;" horiz-adv-x="1054" />
<glyph unicode="&#x2001;" horiz-adv-x="2109" />
<glyph unicode="&#x2002;" horiz-adv-x="1054" />
<glyph unicode="&#x2003;" horiz-adv-x="2109" />
<glyph unicode="&#x2004;" horiz-adv-x="703" />
<glyph unicode="&#x2005;" horiz-adv-x="527" />
<glyph unicode="&#x2006;" horiz-adv-x="351" />
<glyph unicode="&#x2007;" horiz-adv-x="351" />
<glyph unicode="&#x2008;" horiz-adv-x="263" />
<glyph unicode="&#x2009;" horiz-adv-x="421" />
<glyph unicode="&#x200a;" horiz-adv-x="117" />
<glyph unicode="&#x2010;" horiz-adv-x="792" d="M0 680l2 147q2 35 26.5 59.5t59.5 26.5l545 5q37 0 61 -25q25 -29 25 -64l-2 -153q-2 -35 -26.5 -59.5t-59.5 -24.5h-545q-37 0 -61 26q-25 25 -25 62z" />
<glyph unicode="&#x2011;" horiz-adv-x="792" d="M0 680l2 147q2 35 26.5 59.5t59.5 26.5l545 5q37 0 61 -25q25 -29 25 -64l-2 -153q-2 -35 -26.5 -59.5t-59.5 -24.5h-545q-37 0 -61 26q-25 25 -25 62z" />
<glyph unicode="&#x2012;" horiz-adv-x="792" d="M0 680l2 147q2 35 26.5 59.5t59.5 26.5l545 5q37 0 61 -25q25 -29 25 -64l-2 -153q-2 -35 -26.5 -59.5t-59.5 -24.5h-545q-37 0 -61 26q-25 25 -25 62z" />
<glyph unicode="&#x2013;" horiz-adv-x="1097" d="M0 680l3 147q3 35 37.5 59.5t84.5 26.5l777 5q52 0 86 -25q36 -29 36 -64l-3 -153q-3 -35 -37.5 -59.5t-84.5 -24.5h-777q-52 0 -86 26q-36 25 -36 62z" />
<glyph unicode="&#x2014;" horiz-adv-x="2121" d="M0 680l6 147q5 35 75 59.5t170 26.5l1552 5q105 0 174 -25q71 -29 71 -64l-6 -153q-5 -35 -75 -59.5t-170 -24.5h-1552q-105 0 -174 26q-71 25 -71 62z" />
<glyph unicode="&#x2018;" horiz-adv-x="376" d="M-2 1167l8 201q0 33 27 59l135 129q20 16 43 15q23 0 39 -17l4 -4q14 -16 15 -36.5t-11 -36.5l-59 -80q-4 -8 -2 -17q4 -8 12 -8l41 2q20 0 41 -16q16 -20 16 -43l-2 -152q0 -23 -16.5 -40t-40.5 -17l-193 2q-27 0 -41 16q-16 16 -16 43z" />
<glyph unicode="&#x2019;" horiz-adv-x="376" d="M0 1364l2 152q0 23 16.5 40t40.5 17l193 -2q27 0 41 -17q16 -16 16 -43l-8 -200q0 -33 -27 -60l-135 -129q-20 -16 -43 -14q-23 0 -39 16l-4 4q-14 16 -15 37t11 37l60 80q4 8 2 16q-4 8 -13 9l-41 -2q-20 0 -41 16q-16 20 -16 43z" />
<glyph unicode="&#x201a;" horiz-adv-x="376" d="M0 254l2 152q0 23 16.5 40t40.5 17l193 -2q27 0 41 -17q16 -16 16 -43l-8 -200q0 -33 -27 -60l-135 -129q-20 -16 -43 -14q-23 0 -39 16l-4 4q-14 16 -15 37t11 37l60 80q4 8 2 16q-4 8 -13 9l-41 -2q-20 0 -41 16q-16 20 -16 43z" />
<glyph unicode="&#x201c;" horiz-adv-x="776" d="M-2 1167l8 201q4 37 27 59l137 129q20 16 41 15q20 0 41 -17l2 -4q16 -16 16 -36.5t-12 -36.5l-59 -80q-4 -8 -2 -17q8 -8 14 -8l39 2q25 0 41 -16q18 -18 16 -43v-152q0 -23 -17.5 -40t-39.5 -17l-195 2q-25 0 -41 16q-16 20 -16 43zM395 1167l8 201q0 33 27 59l135 129 q20 16 43 15q23 0 39 -17l4 -4q14 -16 15 -36.5t-11 -36.5l-59 -80q-4 -8 -2 -17q4 -8 12 -8l41 2q20 0 41 -16q16 -20 17 -43l-3 -152q0 -23 -16 -40t-41 -17l-192 2q-27 0 -41 16q-16 16 -17 43z" />
<glyph unicode="&#x201d;" horiz-adv-x="776" d="M0 1364l2 152q0 23 16.5 40t40.5 17l193 -2q27 0 41 -17q16 -16 16 -43l-8 -200q0 -33 -27 -60l-135 -129q-20 -16 -43 -14q-23 0 -39 16l-4 4q-14 16 -15 37t11 37l60 80q4 8 2 16q-4 8 -13 9l-41 -2q-20 0 -41 16q-16 20 -16 43zM397 1364v152q0 23 17.5 40t40.5 17 l194 -2q25 0 41 -17q16 -20 17 -43l-9 -200q-4 -37 -26 -60l-137 -129q-20 -16 -41 -14q-20 0 -41 16l-2 4q-16 16 -16.5 37t11.5 37l60 80q4 8 2 16q-8 8 -14 9l-39 -2q-25 0 -41 16q-18 18 -17 43z" />
<glyph unicode="&#x201e;" horiz-adv-x="776" d="M0 256l2 152q0 23 16.5 40t40.5 17l193 -2q27 0 41 -17q16 -16 16 -43l-8 -200q0 -33 -27 -60l-135 -129q-20 -16 -43 -14q-23 0 -39 16l-4 4q-14 16 -15 37t11 37l60 80q4 8 2 16q-4 8 -13 9l-41 -2q-20 0 -41 16q-16 20 -16 43zM397 256v152q0 23 17.5 40t40.5 17 l194 -2q25 0 41 -17q16 -20 17 -43l-9 -200q-4 -37 -26 -60l-137 -129q-20 -16 -41 -14q-20 0 -41 16l-2 4q-16 16 -16.5 37t11.5 37l60 80q4 8 2 16q-8 8 -14 9l-39 -2q-25 0 -41 16q-18 18 -17 43z" />
<glyph unicode="&#x2026;" horiz-adv-x="1320" d="M0 176q0 78 54.5 132t131.5 54q39 0 74 -14t60.5 -39.5t40 -59.5t14.5 -73t-14.5 -73.5t-40 -60.5t-60.5 -40t-74 -14t-72.5 14t-59 40t-40 60.5t-14.5 73.5zM440 176q0 78 54.5 132t132.5 54q39 0 73.5 -14t60 -39.5t40 -59.5t14.5 -73t-14.5 -73.5t-40 -60.5t-60 -40 t-73.5 -14t-73 14t-59.5 40t-40 60.5t-14.5 73.5zM881 176q0 78 54 132t132 54q39 0 74 -14t60.5 -39.5t39.5 -59.5t14 -73t-14 -73.5t-39.5 -60.5t-60.5 -40t-74 -14t-72.5 14t-59.5 40t-40 60.5t-14 73.5z" />
<glyph unicode="&#x202f;" horiz-adv-x="421" />
<glyph unicode="&#x205f;" horiz-adv-x="527" />
<glyph unicode="&#x2122;" horiz-adv-x="1480" d="M0 1368q0 -18 12 -31q14 -14 31 -12l94 2q4 0 6 -2q0 -2 1 -3t1 -3l-10 -465q0 -18 12 -31q14 -12 33 -12l215 10q18 2 29.5 14.5t11.5 28.5l-16 453q0 2 2 4t4 2l74 2q16 2 28.5 13.5t12.5 27.5l4 184q0 20 -10 31q-12 12 -31 12l-459 -2q-18 0 -30.5 -13.5t-12.5 -29.5 zM575 864l11 688q0 18 13 30.5t30 12.5l239 2q31 0 41 -28l80 -262q0 -6 6 -7q6 0 6 7l70 262q6 33 41 33l225 -5q16 0 28.5 -12t12.5 -29l31 -690q0 -20 -10 -30q-12 -12 -31 -13l-176 -2q-39 0 -43 39l-16 244q0 8 -7 8q-6 0 -8 -6l-37 -172q-8 -33 -41 -33h-82 q-31 0 -40 31l-54 160q0 4 -6 4t-6 -6l-2 -230q0 -16 -12 -29q-12 -12 -31 -12l-191 2q-14 0 -28 15q-13 12 -13 28z" />
<glyph unicode="&#x25fc;" horiz-adv-x="1218" d="M0 0v1219h1219v-1219h-1219z" />
</font>
</defs>
</svg>
